<svg width="172" height="52" viewBox="0 0 172 52" fill="none" xmlns="http://www.w3.org/2000/svg">
<path d="M11.5 38.3V38.162H11.638V37.978C11.638 37.886 11.592 37.84 11.5 37.84L10.074 37.978C9.982 37.9167 9.89 37.8553 9.798 37.794C9.706 37.7327 9.614 37.6867 9.522 37.656C9.39933 37.5947 9.292 37.5333 9.2 37.472C9.108 37.4107 9.016 37.3493 8.924 37.288L9.062 37.012H8.878C8.66333 37.012 8.464 37.012 8.28 37.012C8.096 37.012 7.89667 36.9967 7.682 36.966C7.46733 36.9353 7.268 36.92 7.084 36.92C6.9 36.92 6.70067 36.9047 6.486 36.874V36.736H6.67V36.552C6.73133 36.5213 6.82333 36.506 6.946 36.506C7.038 36.4447 7.084 36.368 7.084 36.276L6.946 36.138L5.52 36C5.39733 35.8467 5.16733 35.6473 4.83 35.402C4.49267 35.1873 4.29333 35.0033 4.232 34.85L4.37 34.574C3.358 33.8993 2.56067 32.9333 1.978 31.676C1.39533 30.388 0.981333 29.1613 0.736 27.996C0.705333 27.9347 0.69 27.858 0.69 27.766C0.69 27.674 0.674667 27.5973 0.644 27.536C0.582667 27.352 0.552 27.1987 0.552 27.076C0.552 26.9533 0.582667 26.892 0.644 26.892C0.644 26.9227 0.659333 26.938 0.69 26.938C0.720667 26.9687 0.751333 26.984 0.782 26.984V26.892H0.966C0.751333 26.524 0.613333 26.0947 0.552 25.604C0.490667 25.1133 0.46 24.6533 0.46 24.224V23.856C0.46 23.6107 0.475333 23.4727 0.506 23.442L0.782 20.866C0.966 20.6513 1.13467 20.452 1.288 20.268C1.472 20.0533 1.64067 19.8387 1.794 19.624C1.794 19.532 1.932 19.2713 2.208 18.842C2.484 18.382 2.806 17.8913 3.174 17.37C3.542 16.818 3.89467 16.3427 4.232 15.944C4.6 15.5453 4.876 15.346 5.06 15.346V15.162C5.06 15.0393 5.106 15.0087 5.198 15.07C5.29 15.1313 5.35133 15.1007 5.382 14.978C5.53533 15.0087 5.612 14.9627 5.612 14.84C5.612 14.7173 5.62733 14.6867 5.658 14.748H5.796V14.472C6.348 13.1533 7.19133 11.9267 8.326 10.792C9.46067 9.65733 10.7333 8.64533 12.144 7.756C13.5547 6.836 14.904 6.08466 16.192 5.502C16.2533 5.318 16.284 5.226 16.284 5.226C16.284 5.134 16.3453 5.07266 16.468 5.042C16.6213 4.98067 16.79 4.904 16.974 4.812C17.158 4.72 17.342 4.64333 17.526 4.582L18.538 4.168C19.6727 3.58533 20.6693 3.04867 21.528 2.558C22.3867 2.06733 23.2607 1.66867 24.15 1.362C25.07 1.02466 26.128 0.825331 27.324 0.763999C27.5387 0.733332 27.738 0.702666 27.922 0.672C28.106 0.641332 28.29 0.610664 28.474 0.579998C28.658 0.518666 28.842 0.472665 29.026 0.441997C29.21 0.411331 29.4093 0.380665 29.624 0.349998C30.0533 0.472665 30.5287 0.779332 31.05 1.27C31.602 1.73 32.062 2.25133 32.43 2.834C32.8287 3.386 33.028 3.892 33.028 4.352C33.028 4.84266 32.844 5.21066 32.476 5.456C32.3227 5.51733 31.9547 5.65533 31.372 5.87C30.7893 6.054 30.1913 6.25333 29.578 6.468C28.9647 6.652 28.5047 6.80533 28.198 6.928C27.922 7.02 27.6 7.12733 27.232 7.25C26.864 7.37267 26.45 7.51066 25.99 7.664C24.1193 8.27733 22.08 9.12067 19.872 10.194C18.952 10.654 18.0473 11.1753 17.158 11.758C16.2687 12.3407 15.5327 12.9693 14.95 13.644C14.3673 14.3187 14.076 15.024 14.076 15.76H13.938C14.0607 14.564 14.444 13.5367 15.088 12.678C15.7627 11.8193 16.606 11.0833 17.618 10.47C18.63 9.826 19.7033 9.274 20.838 8.814C21.9727 8.354 23.0767 7.92467 24.15 7.526C24.6713 7.31133 25.1773 7.08133 25.668 6.836C26.1893 6.59067 26.6953 6.34533 27.186 6.1C27.6767 5.85466 28.1827 5.62466 28.704 5.41C29.2253 5.16467 29.7467 4.96533 30.268 4.812C30.3293 4.78133 30.3753 4.766 30.406 4.766C30.4673 4.766 30.5287 4.75067 30.59 4.72C30.682 4.65867 30.728 4.582 30.728 4.49H30.912V4.352C30.82 4.32133 30.6973 4.27533 30.544 4.214C30.4213 4.15267 30.3447 4.06067 30.314 3.938C30.1607 3.96867 29.992 3.99933 29.808 4.03C29.6547 4.06067 29.5013 4.09133 29.348 4.122C29.0413 4.214 28.704 4.26 28.336 4.26C28.2747 4.26 28.1827 4.26 28.06 4.26C27.9373 4.22933 27.876 4.168 27.876 4.076C27.8453 4.04533 27.7687 4.03 27.646 4.03C27.4007 4.03 26.8793 4.122 26.082 4.306C25.3153 4.49 24.4567 4.72 23.506 4.996C22.5553 5.24133 21.6967 5.48667 20.93 5.732C20.1633 5.97733 19.688 6.16133 19.504 6.284L16.33 8.354C16.422 8.354 16.514 8.36933 16.606 8.4C16.7287 8.43067 16.79 8.50733 16.79 8.63C16.6367 8.63 16.3147 8.70667 15.824 8.86C15.364 9.01333 14.9347 9.19733 14.536 9.412C14.1373 9.596 13.938 9.76467 13.938 9.918L14.26 9.78C14.3213 9.78 14.352 9.826 14.352 9.918H14.49V10.056H14.352V10.194C14.26 10.2247 14.0147 10.4087 13.616 10.746C13.2173 11.0833 12.742 11.4973 12.19 11.988C11.6687 12.4787 11.1473 12.9847 10.626 13.506C10.1047 13.9967 9.66 14.4413 9.292 14.84C8.95467 15.2387 8.786 15.4993 8.786 15.622L8.648 15.484C8.31067 15.7907 7.98867 16.1433 7.682 16.542C7.406 16.9407 7.16067 17.3853 6.946 17.876C6.73133 18.3667 6.51667 18.8573 6.302 19.348C6.118 19.808 5.91867 20.2527 5.704 20.682C5.244 21.7553 4.876 22.8593 4.6 23.994C4.324 25.1287 4.186 26.2787 4.186 27.444C4.186 29.9893 4.84533 32.0287 6.164 33.562C7.51333 35.0953 9.522 35.862 12.19 35.862V35.724C12.3433 35.5707 12.5427 35.494 12.788 35.494C12.88 35.494 12.926 35.5247 12.926 35.586H13.064V35.31H13.202V35.448L13.8 35.31L14.49 35.586V35.448C14.5513 35.3867 14.72 35.2947 14.996 35.172C15.3027 35.0187 15.6093 34.896 15.916 34.804C16.2227 34.6813 16.4067 34.6507 16.468 34.712C16.5907 34.62 16.698 34.528 16.79 34.436C16.882 34.344 16.974 34.252 17.066 34.16C17.158 34.0373 17.25 33.93 17.342 33.838C17.434 33.746 17.526 33.654 17.618 33.562L18.078 33.424V33.884H18.354V33.7H18.216C18.3693 33.6387 18.5073 33.5467 18.63 33.424H18.768C18.7987 33.3933 19.0593 33.1633 19.55 32.734C20.0407 32.3047 20.608 31.8293 21.252 31.308C21.9267 30.756 22.54 30.2807 23.092 29.882C23.644 29.4833 24.012 29.284 24.196 29.284L24.058 29.146C24.3647 28.8393 24.8093 28.456 25.392 27.996C25.9747 27.5053 26.5113 27.0147 27.002 26.524C27.4927 26.0333 27.738 25.6347 27.738 25.328H28.06V25.466C28.06 25.558 27.9987 25.604 27.876 25.604L27.324 27.168L26.91 27.582L26.45 27.996C26.2047 28.2413 25.99 28.502 25.806 28.778C25.6833 28.9313 25.5607 29.0847 25.438 29.238C25.346 29.3607 25.2387 29.4987 25.116 29.652C24.564 30.3267 23.8893 31.078 23.092 31.906C22.2947 32.734 21.4513 33.5007 20.562 34.206C19.7033 34.8807 18.86 35.3713 18.032 35.678L17.388 35.908C17.1427 36 16.9893 36.1227 16.928 36.276H17.204C17.0813 36.3373 16.9433 36.414 16.79 36.506C16.6673 36.598 16.5293 36.69 16.376 36.782C16.2227 36.874 16.0693 36.966 15.916 37.058C15.7933 37.15 15.6553 37.2267 15.502 37.288V37.15C14.8273 37.3033 14.1527 37.472 13.478 37.656C12.8033 37.84 12.144 38.0547 11.5 38.3ZM27.1874 35.632C26.7581 35.632 26.3901 35.4327 26.0834 35.034C25.7768 34.6047 25.6234 34.1907 25.6234 33.792C25.6234 33.6693 25.6388 33.562 25.6694 33.47C25.6694 33.3473 25.6848 33.2247 25.7154 33.102C25.7768 32.9793 25.8228 32.872 25.8534 32.78C25.8841 32.6573 25.9148 32.5347 25.9454 32.412L26.0834 31.584L26.2674 30.848C26.3594 30.5413 26.4974 30.112 26.6814 29.56C26.8654 28.9773 27.0494 28.4253 27.2334 27.904C27.4481 27.3827 27.5861 27.0453 27.6474 26.892C27.9541 26.1253 28.3528 25.3587 28.8434 24.592C29.0581 24.224 29.2574 23.856 29.4414 23.488C29.6561 23.0893 29.8554 22.6907 30.0394 22.292C30.1008 22.1387 30.1774 21.9853 30.2694 21.832C30.3921 21.648 30.5148 21.4793 30.6374 21.326C30.7601 21.1727 30.8674 21.0193 30.9594 20.866C31.0514 20.7127 31.1588 20.5593 31.2814 20.406C31.3121 20.3447 31.3274 20.2987 31.3274 20.268C31.3581 20.2373 31.3734 20.2067 31.3734 20.176V20.13C31.3734 20.1607 31.3888 20.176 31.4194 20.176C31.4808 19.7773 31.5881 19.4247 31.7414 19.118C31.9254 18.8113 32.1248 18.52 32.3394 18.244C32.5848 17.876 32.8301 17.5387 33.0754 17.232C33.3514 16.8947 33.5661 16.634 33.7194 16.45C33.9648 16.1127 34.1028 15.622 34.1334 14.978C34.1948 14.334 34.3174 13.8893 34.5014 13.644L35.1914 12.954L35.8354 12.264C35.9581 12.1413 36.0654 12.0187 36.1574 11.896C36.2494 11.7427 36.3414 11.6047 36.4334 11.482C36.5561 11.206 36.7248 10.9453 36.9394 10.7C37.1541 10.4547 37.3688 10.2247 37.5834 10.01C37.7981 9.76467 38.0128 9.53467 38.2274 9.32C38.3501 9.16666 38.4574 9.02866 38.5494 8.906C38.6721 8.75266 38.7794 8.59933 38.8714 8.446C38.9634 8.29267 39.0554 8.15467 39.1474 8.032C39.2701 7.87866 39.3928 7.74066 39.5154 7.618C39.9448 7.09667 40.4048 6.62133 40.8954 6.192C41.3861 5.732 41.8921 5.272 42.4134 4.812C42.6588 4.59733 42.9041 4.36733 43.1494 4.122C43.4254 3.87667 43.7014 3.63133 43.9774 3.386C44.5294 2.834 45.0968 2.45066 45.6794 2.236L46.7374 1.822C46.8908 1.76066 47.0441 1.69933 47.1974 1.638C47.3814 1.57667 47.5501 1.48467 47.7034 1.362C47.9181 1.454 48.2248 1.60733 48.6234 1.822C49.0528 2.006 49.4361 2.236 49.7734 2.512C50.1108 2.75733 50.2794 3.018 50.2794 3.294C50.2794 3.41667 50.2334 3.55467 50.1414 3.708C50.0188 3.92266 49.6661 4.15266 49.0834 4.398C48.5314 4.61267 48.1328 4.79667 47.8874 4.95C47.5194 5.16467 47.1974 5.44067 46.9214 5.778C46.7681 5.93133 46.5994 6.06933 46.4154 6.192C46.2314 6.31466 46.0321 6.43733 45.8174 6.56H45.7254C45.5414 6.744 45.2654 6.94333 44.8974 7.158L43.9774 7.664C43.8548 7.72533 43.7628 7.78667 43.7014 7.848C43.6708 7.87867 43.6401 7.90933 43.6094 7.94C43.5788 7.97067 43.5481 8.032 43.5174 8.124C43.4868 8.18533 43.4408 8.27733 43.3794 8.4C43.3794 8.43067 43.3641 8.446 43.3334 8.446C43.3028 8.446 43.2874 8.46133 43.2874 8.492L43.1494 8.584L43.1034 8.63L43.3794 8.584L43.4254 8.814C43.4254 8.906 43.3794 8.952 43.2874 8.952C43.0728 9.16667 42.8581 9.366 42.6434 9.55C42.4594 9.70333 42.2601 9.88733 42.0454 10.102L40.8034 11.344C40.5888 11.5587 40.4201 11.804 40.2974 12.08C40.1134 12.3867 39.8834 12.5707 39.6074 12.632V12.678C39.6074 12.9847 39.3774 13.3527 38.9174 13.782C38.4574 14.1807 38.0588 14.5487 37.7214 14.886C37.5374 15.0087 37.4148 15.1467 37.3534 15.3H37.3074V15.346C37.3074 15.5913 37.1694 15.898 36.8934 16.266C36.6174 16.6033 36.3108 16.772 35.9734 16.772V16.082L36.1114 15.99C36.2341 15.9593 36.3108 15.898 36.3414 15.806H36.6174L36.6634 15.76H36.6174C36.9854 15.1467 37.1234 14.8093 37.0314 14.748C36.9701 14.6867 36.7708 14.8247 36.4334 15.162C36.1268 15.4687 35.7588 15.898 35.3294 16.45C34.9308 17.002 34.5781 17.5847 34.2714 18.198C34.2408 18.566 34.0414 18.934 33.6734 19.302C33.3668 19.67 33.0908 20.038 32.8454 20.406V20.452C32.6308 20.8507 32.4161 21.234 32.2014 21.602C31.9868 21.9393 31.7721 22.2767 31.5574 22.614C31.3428 22.9513 31.1434 23.2887 30.9594 23.626C30.7754 23.9327 30.6068 24.2547 30.4534 24.592C30.1161 25.236 29.7941 25.926 29.4874 26.662C29.2114 27.3673 28.9201 28.18 28.6134 29.1L27.7854 31.722C27.6628 32.1513 27.5401 32.6113 27.4174 33.102C27.3254 33.562 27.2641 34.0373 27.2334 34.528C27.2641 34.4667 27.2948 34.4207 27.3254 34.39C27.3868 34.3287 27.4328 34.2673 27.4634 34.206L27.7394 33.792C27.8928 33.5467 28.0461 33.3013 28.1994 33.056C28.3528 32.78 28.5061 32.504 28.6594 32.228C28.8128 31.9827 28.9814 31.7373 29.1654 31.492C29.3494 31.2467 29.5181 31.0167 29.6714 30.802C30.0088 30.3727 30.2388 30.158 30.3614 30.158C30.4534 30.158 30.4994 30.204 30.4994 30.296C30.4994 30.4187 30.3461 30.756 30.0394 31.308C29.7634 31.86 29.4261 32.4733 29.0274 33.148C28.6288 33.8227 28.2454 34.4053 27.8774 34.896C27.5401 35.3867 27.3101 35.632 27.1874 35.632ZM41.4934 9.964C41.6161 9.90267 41.7234 9.826 41.8154 9.734C41.9381 9.642 42.0454 9.56533 42.1374 9.504C42.3214 9.35067 42.4134 9.24333 42.4134 9.182L42.2754 8.952C42.1221 9.07467 41.9534 9.228 41.7694 9.412C41.6161 9.596 41.5241 9.78 41.4934 9.964ZM40.6194 10.47C40.7421 10.4087 40.8801 10.3473 41.0334 10.286C41.1868 10.194 41.3401 10.102 41.4934 10.01L41.1254 9.918L40.6194 10.47ZM40.9414 39.772C40.3281 39.772 39.8068 39.588 39.3774 39.22C38.9481 38.852 38.5494 38.4533 38.1814 38.024C37.9974 37.84 37.8594 37.7173 37.7674 37.656C37.6141 37.564 37.5374 37.3953 37.5374 37.15L37.7674 37.058V37.012C37.2154 36.276 36.8781 35.4633 36.7554 34.574C36.6634 34.114 36.5561 33.6693 36.4334 33.24C36.3414 32.78 36.2341 32.3507 36.1114 31.952H36.2034L36.1574 31.906C36.0961 31.722 36.0654 31.5533 36.0654 31.4V30.94C36.0654 30.572 36.0808 30.342 36.1114 30.25C36.0808 30.2807 36.0194 30.296 35.9274 30.296H35.8814V30.204H35.7894C35.8201 30.112 35.8354 29.974 35.8354 29.79V29.468C35.8354 29.376 35.8201 29.1307 35.7894 28.732C35.7894 28.3027 35.7588 27.8273 35.6974 27.306C35.6668 26.7847 35.6054 26.34 35.5134 25.972C35.4214 25.604 35.2988 25.42 35.1454 25.42C35.0841 25.42 34.9154 25.558 34.6394 25.834C34.3634 26.11 34.0568 26.432 33.7194 26.8C33.3821 27.1373 33.0754 27.4593 32.7994 27.766C32.5541 28.042 32.4161 28.2107 32.3854 28.272C32.2014 28.456 32.0328 28.6247 31.8794 28.778C31.7261 28.9007 31.5574 29.0233 31.3734 29.146V28.732C31.4654 28.5787 31.5574 28.4407 31.6494 28.318C31.7414 28.1647 31.8181 28.0113 31.8794 27.858C31.9408 27.7047 32.0174 27.5513 32.1094 27.398C32.2014 27.2447 32.2934 27.1067 32.3854 26.984C32.4774 26.8613 32.5694 26.754 32.6614 26.662C32.7534 26.5393 32.8608 26.4167 32.9834 26.294C33.0754 26.202 33.1674 26.11 33.2594 26.018C33.3514 25.926 33.4281 25.8187 33.4894 25.696C33.7041 25.4813 33.8881 25.2207 34.0414 24.914C34.1948 24.6073 34.3788 24.3467 34.5934 24.132C34.8388 23.7947 35.2068 23.35 35.6974 22.798C36.2188 22.246 36.6481 21.924 36.9854 21.832L38.0894 21.556H38.3194C38.3501 21.6787 38.3961 21.8167 38.4574 21.97C38.5188 22.1233 38.5801 22.3073 38.6414 22.522C38.7641 22.89 38.8254 23.212 38.8254 23.488C38.8254 24.0093 38.8254 24.5307 38.8254 25.052C38.8561 25.5427 38.8714 26.0487 38.8714 26.57V30.112C38.8714 30.2347 38.8408 30.388 38.7794 30.572C38.8101 30.664 38.8254 30.756 38.8254 30.848C38.8561 30.9093 38.8714 30.986 38.8714 31.078H38.9174V31.124L39.1934 31.032C39.1934 31.584 39.1934 32.0747 39.1934 32.504C39.2241 32.9333 39.3621 33.4087 39.6074 33.93C39.6994 34.022 39.7454 34.114 39.7454 34.206C39.7454 34.2673 39.7148 34.298 39.6534 34.298V34.39H39.3774C39.3468 34.39 39.3008 34.4207 39.2394 34.482H39.1934C39.1934 34.6353 39.2088 34.7273 39.2394 34.758V35.034L39.6074 34.804C39.6994 35.632 39.9601 36.3833 40.3894 37.058C40.8494 37.7327 41.4781 38.07 42.2754 38.07H42.4594C42.4901 38.0393 42.5361 38.024 42.5974 38.024L43.0574 37.748C43.1494 37.6867 43.2414 37.61 43.3334 37.518C43.4254 37.4567 43.5328 37.3953 43.6554 37.334C43.8394 37.1807 44.0081 37.012 44.1614 36.828C44.3148 36.644 44.3914 36.322 44.3914 35.862C44.4528 36.046 44.4988 36.184 44.5294 36.276C44.5601 36.3987 44.5908 36.4907 44.6214 36.552V36.69C44.6214 36.9047 44.5601 37.0887 44.4374 37.242C44.3148 37.426 44.1921 37.5947 44.0694 37.748C43.7014 38.2693 43.2568 38.7293 42.7354 39.128C42.2141 39.5573 41.6161 39.772 40.9414 39.772ZM30.5914 29.882C30.4688 29.882 30.4074 29.8207 30.4074 29.698C30.4074 29.6367 30.4534 29.514 30.5454 29.33C30.6681 29.146 30.8061 29.054 30.9594 29.054C31.0821 29.054 31.1434 29.1613 31.1434 29.376C31.1434 29.7133 30.9594 29.882 30.5914 29.882ZM47.5924 38.07C47.2551 38.07 46.9637 37.978 46.7184 37.794C46.5037 37.6407 46.2891 37.4413 46.0744 37.196C45.6757 36.6747 45.3384 36.23 45.0624 35.862C44.7864 35.494 44.6484 34.942 44.6484 34.206V32.78C44.6484 32.504 44.7251 32.09 44.8784 31.538C45.0317 30.9553 45.2157 30.388 45.4304 29.836C45.6757 29.284 45.8904 28.916 46.0744 28.732C46.3504 27.8427 46.6724 26.9687 47.0404 26.11C47.4084 25.2513 47.8837 24.4693 48.4664 23.764C48.1597 23.028 47.9604 22.2767 47.8684 21.51C47.7764 20.7127 47.7304 19.9153 47.7304 19.118C47.7304 18.8727 47.7304 18.658 47.7304 18.474C47.7611 18.2593 47.7917 18.0293 47.8224 17.784L47.9604 17.6L48.0064 17.554V17.37C47.9757 17.3393 47.9604 17.2933 47.9604 17.232C47.9604 17.1093 48.0064 16.91 48.0984 16.634C48.1904 16.358 48.2671 16.082 48.3284 15.806C48.4204 15.53 48.4664 15.3767 48.4664 15.346C48.4664 15.2847 48.5277 15.2387 48.6504 15.208L48.8804 15.116C48.9111 15.0853 48.9877 15.0393 49.1104 14.978L49.2484 14.886C49.5244 14.518 49.9231 14.2573 50.4444 14.104C50.9964 13.9507 51.4871 13.874 51.9164 13.874C52.8364 13.874 53.5111 14.196 53.9404 14.84C54.4004 15.4533 54.7531 16.1587 54.9984 16.956C55.2131 16.8027 55.4277 16.726 55.6424 16.726C55.7344 16.726 55.8111 16.7567 55.8724 16.818C56.3631 16.9407 56.9151 17.2013 57.5284 17.6C58.1724 17.9987 58.4944 18.428 58.4944 18.888V18.98C58.4944 19.1333 58.3411 19.348 58.0344 19.624C57.7277 19.9 57.3597 20.1913 56.9304 20.498C56.5317 20.774 56.1331 21.0347 55.7344 21.28C55.3664 21.5253 55.1057 21.694 54.9524 21.786C54.7377 21.9087 54.5231 22.016 54.3084 22.108C54.1857 22.1387 54.0784 22.2 53.9864 22.292C53.8944 22.3533 53.7871 22.4147 53.6644 22.476C53.5111 22.5987 53.3577 22.7213 53.2044 22.844C53.0817 22.9667 52.9437 23.1047 52.7904 23.258L52.3764 23.672C52.2844 23.764 52.2077 23.856 52.1464 23.948C52.0851 24.0093 52.0084 24.0707 51.9164 24.132C51.8551 24.1933 51.7477 24.27 51.5944 24.362C51.4717 24.454 51.3337 24.5613 51.1804 24.684C50.8124 24.9293 50.6131 25.1593 50.5824 25.374C50.5517 25.4047 50.4904 25.5427 50.3984 25.788C50.3371 26.0027 50.3064 26.156 50.3064 26.248C50.3064 26.5853 50.3524 26.9993 50.4444 27.49C50.5364 27.95 50.6744 28.3947 50.8584 28.824C50.9504 29.0693 50.9504 29.3453 50.8584 29.652C50.7664 29.928 50.5977 29.974 50.3524 29.79C50.1071 29.5447 49.8924 29.2227 49.7084 28.824C49.5244 28.4253 49.4171 28.134 49.3864 27.95C49.3557 27.8887 49.3711 27.8427 49.4324 27.812C49.4937 27.7813 49.4937 27.7353 49.4324 27.674L49.3404 27.582C49.3097 27.5513 49.2944 27.5053 49.2944 27.444C49.2944 27.444 49.2637 27.4133 49.2024 27.352C48.9571 27.5973 48.6964 28.0113 48.4204 28.594C48.1444 29.146 47.9451 29.5753 47.8224 29.882L47.5464 30.526C47.3931 30.8633 47.2857 31.032 47.2244 31.032C47.1017 31.032 47.0404 30.9553 47.0404 30.802V30.756C47.0404 30.572 47.0864 30.3727 47.1784 30.158L47.4544 29.422C47.3011 29.6673 47.1631 29.9433 47.0404 30.25C46.9484 30.526 46.9024 30.71 46.9024 30.802V30.848L46.9484 30.94C46.9484 30.9707 46.9637 31.0013 46.9944 31.032V31.216C46.9637 31.216 46.9484 31.2467 46.9484 31.308C46.8871 31.6147 46.8104 31.9213 46.7184 32.228C46.6264 32.5347 46.5344 32.8413 46.4424 33.148C46.2277 33.7 46.1204 34.344 46.1204 35.08C46.1204 35.5707 46.2124 36 46.3964 36.368C46.5804 36.736 46.9331 36.92 47.4544 36.92C47.7304 36.92 47.9757 36.874 48.1904 36.782C48.4357 36.69 48.7884 36.46 49.2484 36.092C49.7391 35.7547 50.2297 35.356 50.7204 34.896C51.2111 34.4053 51.6251 33.9453 51.9624 33.516C52.3304 33.0867 52.5144 32.7647 52.5144 32.55C52.6064 32.3967 52.7291 32.2433 52.8824 32.09C53.0357 31.906 53.0817 31.7373 53.0204 31.584C53.4191 30.9707 53.7564 30.2347 54.0324 29.376C54.3391 28.4867 54.5844 27.582 54.7684 26.662C54.9831 25.742 55.1211 24.9293 55.1824 24.224C55.2437 23.9787 55.2897 23.81 55.3204 23.718C55.3817 23.5953 55.4277 23.5187 55.4584 23.488L55.5044 23.442C55.5657 23.3807 55.5964 23.2887 55.5964 23.166C55.5964 23.1047 55.5964 23.028 55.5964 22.936C55.5964 22.844 55.5811 22.752 55.5504 22.66C55.4891 22.476 55.4584 22.3073 55.4584 22.154C55.4584 22.0313 55.5044 21.8627 55.5964 21.648C55.6884 21.4333 55.8264 21.326 56.0104 21.326C56.2251 21.326 56.3937 21.4947 56.5164 21.832C56.6391 22.1693 56.7311 22.5373 56.7924 22.936C56.8844 23.304 56.9304 23.5953 56.9304 23.81C56.9304 24.5153 56.8537 25.3127 56.7004 26.202C56.5471 27.0607 56.3477 27.8427 56.1024 28.548C55.8877 29.1307 55.6424 29.6367 55.3664 30.066C55.1211 30.4953 54.8297 30.9707 54.4924 31.492L54.0324 32.228L53.8484 32.55C53.8177 32.5193 53.7871 32.5807 53.7564 32.734C53.7564 32.8567 53.7257 32.918 53.6644 32.918C53.6337 32.918 53.6031 32.9487 53.5724 33.01C53.5724 33.0407 53.5571 33.0713 53.5264 33.102C53.3731 33.3473 53.1891 33.562 52.9744 33.746C52.8517 33.8687 52.7291 33.9913 52.6064 34.114C52.5144 34.206 52.4377 34.3133 52.3764 34.436C52.0391 34.9267 51.6097 35.448 51.0884 36C50.5977 36.5827 50.0457 37.0733 49.4324 37.472C48.8497 37.8707 48.2364 38.07 47.5924 38.07ZM49.6164 22.568L49.6624 22.476L49.7544 22.108C49.8464 21.7093 50.1837 21.234 50.7664 20.682C51.3491 20.13 51.8244 19.67 52.1924 19.302C52.4684 19.0567 52.7444 18.7807 53.0204 18.474C53.2964 18.1673 53.5724 17.9067 53.8484 17.692C53.7871 17.4467 53.6491 17.1247 53.4344 16.726C53.2504 16.3273 53.0357 15.9747 52.7904 15.668C52.5757 15.3307 52.3611 15.162 52.1464 15.162C51.8091 15.162 51.5024 15.3 51.2264 15.576L51.1344 15.668C51.1037 15.76 51.0424 15.806 50.9504 15.806L50.7204 15.944C50.7204 15.9747 50.7051 15.99 50.6744 15.99V16.082C50.5517 16.358 50.4137 16.6493 50.2604 16.956C50.1684 17.0787 50.0917 17.2013 50.0304 17.324C49.9997 17.416 49.9691 17.4927 49.9384 17.554C49.7851 18.0753 49.6471 18.612 49.5244 19.164C49.4324 19.716 49.3864 20.268 49.3864 20.82C49.3864 21.1267 49.4017 21.4333 49.4324 21.74C49.4631 22.016 49.5244 22.292 49.6164 22.568ZM61.8326 38.07C61.4953 38.07 61.204 37.978 60.9586 37.794C60.744 37.6407 60.5293 37.4413 60.3146 37.196C59.916 36.6747 59.5786 36.23 59.3026 35.862C59.0266 35.494 58.8886 34.942 58.8886 34.206V32.78C58.8886 32.504 58.9653 32.09 59.1186 31.538C59.272 30.9553 59.456 30.388 59.6706 29.836C59.916 29.284 60.1306 28.916 60.3146 28.732C60.5906 27.8427 60.9126 26.9687 61.2806 26.11C61.6486 25.2513 62.124 24.4693 62.7066 23.764C62.4 23.028 62.2006 22.2767 62.1086 21.51C62.0166 20.7127 61.9706 19.9153 61.9706 19.118C61.9706 18.8727 61.9706 18.658 61.9706 18.474C62.0013 18.2593 62.032 18.0293 62.0626 17.784L62.2006 17.6L62.2466 17.554V17.37C62.216 17.3393 62.2006 17.2933 62.2006 17.232C62.2006 17.1093 62.2466 16.91 62.3386 16.634C62.4306 16.358 62.5073 16.082 62.5686 15.806C62.6606 15.53 62.7066 15.3767 62.7066 15.346C62.7066 15.2847 62.768 15.2387 62.8906 15.208L63.1206 15.116C63.1513 15.0853 63.228 15.0393 63.3506 14.978L63.4886 14.886C63.7646 14.518 64.1633 14.2573 64.6846 14.104C65.2366 13.9507 65.7273 13.874 66.1566 13.874C67.0766 13.874 67.7513 14.196 68.1806 14.84C68.6406 15.4533 68.9933 16.1587 69.2386 16.956C69.4533 16.8027 69.668 16.726 69.8826 16.726C69.9746 16.726 70.0513 16.7567 70.1126 16.818C70.6033 16.9407 71.1553 17.2013 71.7686 17.6C72.4126 17.9987 72.7346 18.428 72.7346 18.888V18.98C72.7346 19.1333 72.5813 19.348 72.2746 19.624C71.968 19.9 71.6 20.1913 71.1706 20.498C70.772 20.774 70.3733 21.0347 69.9746 21.28C69.6066 21.5253 69.346 21.694 69.1926 21.786C68.978 21.9087 68.7633 22.016 68.5486 22.108C68.426 22.1387 68.3186 22.2 68.2266 22.292C68.1346 22.3533 68.0273 22.4147 67.9046 22.476C67.7513 22.5987 67.598 22.7213 67.4446 22.844C67.322 22.9667 67.184 23.1047 67.0306 23.258L66.6166 23.672C66.5246 23.764 66.448 23.856 66.3866 23.948C66.3253 24.0093 66.2486 24.0707 66.1566 24.132C66.0953 24.1933 65.988 24.27 65.8346 24.362C65.712 24.454 65.574 24.5613 65.4206 24.684C65.0526 24.9293 64.8533 25.1593 64.8226 25.374C64.792 25.4047 64.7306 25.5427 64.6386 25.788C64.5773 26.0027 64.5466 26.156 64.5466 26.248C64.5466 26.5853 64.5926 26.9993 64.6846 27.49C64.7766 27.95 64.9146 28.3947 65.0986 28.824C65.1906 29.0693 65.1906 29.3453 65.0986 29.652C65.0066 29.928 64.838 29.974 64.5926 29.79C64.3473 29.5447 64.1326 29.2227 63.9486 28.824C63.7646 28.4253 63.6573 28.134 63.6266 27.95C63.596 27.8887 63.6113 27.8427 63.6726 27.812C63.734 27.7813 63.734 27.7353 63.6726 27.674L63.5806 27.582C63.55 27.5513 63.5346 27.5053 63.5346 27.444C63.5346 27.444 63.504 27.4133 63.4426 27.352C63.1973 27.5973 62.9366 28.0113 62.6606 28.594C62.3846 29.146 62.1853 29.5753 62.0626 29.882L61.7866 30.526C61.6333 30.8633 61.526 31.032 61.4646 31.032C61.342 31.032 61.2806 30.9553 61.2806 30.802V30.756C61.2806 30.572 61.3266 30.3727 61.4186 30.158L61.6946 29.422C61.5413 29.6673 61.4033 29.9433 61.2806 30.25C61.1886 30.526 61.1426 30.71 61.1426 30.802V30.848L61.1886 30.94C61.1886 30.9707 61.204 31.0013 61.2346 31.032V31.216C61.204 31.216 61.1886 31.2467 61.1886 31.308C61.1273 31.6147 61.0506 31.9213 60.9586 32.228C60.8666 32.5347 60.7746 32.8413 60.6826 33.148C60.468 33.7 60.3606 34.344 60.3606 35.08C60.3606 35.5707 60.4526 36 60.6366 36.368C60.8206 36.736 61.1733 36.92 61.6946 36.92C61.9706 36.92 62.216 36.874 62.4306 36.782C62.676 36.69 63.0286 36.46 63.4886 36.092C63.9793 35.7547 64.47 35.356 64.9606 34.896C65.4513 34.4053 65.8653 33.9453 66.2026 33.516C66.5706 33.0867 66.7546 32.7647 66.7546 32.55C66.8466 32.3967 66.9693 32.2433 67.1226 32.09C67.276 31.906 67.322 31.7373 67.2606 31.584C67.6593 30.9707 67.9966 30.2347 68.2726 29.376C68.5793 28.4867 68.8246 27.582 69.0086 26.662C69.2233 25.742 69.3613 24.9293 69.4226 24.224C69.484 23.9787 69.53 23.81 69.5606 23.718C69.622 23.5953 69.668 23.5187 69.6986 23.488L69.7446 23.442C69.806 23.3807 69.8366 23.2887 69.8366 23.166C69.8366 23.1047 69.8366 23.028 69.8366 22.936C69.8366 22.844 69.8213 22.752 69.7906 22.66C69.7293 22.476 69.6986 22.3073 69.6986 22.154C69.6986 22.0313 69.7446 21.8627 69.8366 21.648C69.9286 21.4333 70.0666 21.326 70.2506 21.326C70.4653 21.326 70.634 21.4947 70.7566 21.832C70.8793 22.1693 70.9713 22.5373 71.0326 22.936C71.1246 23.304 71.1706 23.5953 71.1706 23.81C71.1706 24.5153 71.094 25.3127 70.9406 26.202C70.7873 27.0607 70.588 27.8427 70.3426 28.548C70.128 29.1307 69.8826 29.6367 69.6066 30.066C69.3613 30.4953 69.07 30.9707 68.7326 31.492L68.2726 32.228L68.0886 32.55C68.058 32.5193 68.0273 32.5807 67.9966 32.734C67.9966 32.8567 67.966 32.918 67.9046 32.918C67.874 32.918 67.8433 32.9487 67.8126 33.01C67.8126 33.0407 67.7973 33.0713 67.7666 33.102C67.6133 33.3473 67.4293 33.562 67.2146 33.746C67.092 33.8687 66.9693 33.9913 66.8466 34.114C66.7546 34.206 66.678 34.3133 66.6166 34.436C66.2793 34.9267 65.85 35.448 65.3286 36C64.838 36.5827 64.286 37.0733 63.6726 37.472C63.09 37.8707 62.4766 38.07 61.8326 38.07ZM63.8566 22.568L63.9026 22.476L63.9946 22.108C64.0866 21.7093 64.424 21.234 65.0066 20.682C65.5893 20.13 66.0646 19.67 66.4326 19.302C66.7086 19.0567 66.9846 18.7807 67.2606 18.474C67.5366 18.1673 67.8126 17.9067 68.0886 17.692C68.0273 17.4467 67.8893 17.1247 67.6746 16.726C67.4906 16.3273 67.276 15.9747 67.0306 15.668C66.816 15.3307 66.6013 15.162 66.3866 15.162C66.0493 15.162 65.7426 15.3 65.4666 15.576L65.3746 15.668C65.344 15.76 65.2826 15.806 65.1906 15.806L64.9606 15.944C64.9606 15.9747 64.9453 15.99 64.9146 15.99V16.082C64.792 16.358 64.654 16.6493 64.5006 16.956C64.4086 17.0787 64.332 17.2013 64.2706 17.324C64.24 17.416 64.2093 17.4927 64.1786 17.554C64.0253 18.0753 63.8873 18.612 63.7646 19.164C63.6726 19.716 63.6266 20.268 63.6266 20.82C63.6266 21.1267 63.642 21.4333 63.6726 21.74C63.7033 22.016 63.7646 22.292 63.8566 22.568ZM77.2689 35.54C77.1155 35.54 76.9622 35.54 76.8089 35.54C76.6862 35.5093 76.5482 35.4787 76.3949 35.448C76.2415 35.3867 76.0882 35.3407 75.9349 35.31C75.7815 35.2793 75.6282 35.2487 75.4749 35.218L75.5209 34.988C74.5702 34.988 73.9262 34.8193 73.5889 34.482C73.2822 34.114 73.1289 33.4393 73.1289 32.458C73.1289 32.366 73.1442 32.3047 73.1749 32.274V32.136C73.3282 32.1667 73.4509 32.1973 73.5429 32.228C73.6349 32.228 73.7115 32.228 73.7729 32.228C74.0795 32.228 74.2942 32.1667 74.4169 32.044C74.6009 32.0133 74.7849 31.998 74.9689 31.998C75.1529 31.998 75.3369 31.9827 75.5209 31.952C75.6742 31.952 75.8429 31.952 76.0269 31.952C76.2109 31.9213 76.3795 31.8907 76.5329 31.86V31.814C76.0115 30.7713 75.5515 29.8207 75.1529 28.962C74.7849 28.1033 74.6009 27.1527 74.6009 26.11C74.6009 25.4047 74.7235 24.7607 74.9689 24.178C75.2449 23.5953 75.4595 22.982 75.6129 22.338C75.6742 22.154 75.7662 22.062 75.8889 22.062C76.0422 22.0313 76.1495 22.0007 76.2109 21.97C76.3335 21.8167 76.4409 21.6787 76.5329 21.556C76.6555 21.4333 76.7782 21.3107 76.9009 21.188C76.9929 21.096 77.0849 21.0193 77.1769 20.958C77.2995 20.866 77.4069 20.774 77.4989 20.682L77.8209 20.406C78.6489 19.7007 79.5842 19.1027 80.6269 18.612C81.6695 18.0907 82.6662 17.6307 83.6169 17.232L84.8129 18.014C84.9662 18.3207 85.1502 18.6427 85.3649 18.98C85.5795 19.2867 85.6869 19.6393 85.6869 20.038V20.222C85.6562 20.2833 85.6409 20.3753 85.6409 20.498L85.3649 20.912C85.3649 20.912 85.1195 21.0653 84.6289 21.372C84.1689 21.6787 83.6169 22.016 82.9729 22.384C82.3595 22.752 81.8075 23.0893 81.3169 23.396C80.8569 23.672 80.6115 23.81 80.5809 23.81C80.4582 23.81 80.3969 23.764 80.3969 23.672C80.3969 23.58 80.5809 23.3807 80.9489 23.074C81.3475 22.7367 81.7922 22.384 82.2829 22.016C82.7735 21.6173 83.2182 21.28 83.6169 21.004C84.0155 20.728 84.2302 20.5747 84.2609 20.544C83.4022 20.636 82.5589 20.82 81.7309 21.096C80.9029 21.3413 80.1669 21.694 79.5229 22.154C79.4615 22.1847 79.3695 22.1847 79.2469 22.154C79.1242 22.1233 79.0322 22.1387 78.9709 22.2C78.8789 22.2613 78.8175 22.384 78.7869 22.568C78.7562 22.752 78.7102 22.8747 78.6489 22.936C78.2502 23.3347 77.9282 23.81 77.6829 24.362C77.4682 24.914 77.3609 25.5427 77.3609 26.248C77.3609 26.4013 77.4375 26.7693 77.5909 27.352C77.7442 27.904 77.9435 28.5173 78.1889 29.192C78.4342 29.8667 78.6949 30.4493 78.9709 30.94C79.2469 31.4307 79.5075 31.676 79.7529 31.676H80.9029C81.0869 31.676 81.2709 31.676 81.4549 31.676C81.6389 31.6453 81.8229 31.6147 82.0069 31.584C82.3442 31.5227 82.6662 31.4307 82.9729 31.308C83.6169 31.1547 84.2609 31.0627 84.9049 31.032C85.1195 30.9093 85.3802 30.8173 85.6869 30.756C85.8402 30.7253 85.9782 30.71 86.1009 30.71C86.2542 30.71 86.3922 30.6947 86.5149 30.664L86.7909 30.802L86.7449 31.216C86.5302 31.2773 86.1775 31.4 85.6869 31.584C85.2269 31.768 84.7515 31.9367 84.2609 32.09C83.8009 32.2433 83.4482 32.32 83.2029 32.32L83.0189 32.274C82.9882 32.274 82.9729 32.2587 82.9729 32.228H82.9269C82.6815 32.228 82.4362 32.274 82.1909 32.366C82.0682 32.4273 81.9302 32.4887 81.7769 32.55C81.6542 32.5807 81.5315 32.6267 81.4089 32.688C81.1635 32.78 80.8722 32.872 80.5349 32.964C80.2282 33.0253 79.9062 33.0407 79.5689 33.01C79.5075 33.6233 79.2775 34.206 78.8789 34.758C78.5109 35.2793 77.9742 35.54 77.2689 35.54ZM76.3029 33.746C76.3949 33.746 76.4409 33.654 76.4409 33.47C76.4409 33.4087 76.4255 33.332 76.3949 33.24C76.3642 33.1173 76.3182 33.056 76.2569 33.056C76.1035 33.056 75.9349 33.056 75.7509 33.056C75.5669 33.0253 75.3982 32.9947 75.2449 32.964C75.0609 32.9333 74.8769 32.918 74.6929 32.918C74.5089 32.8873 74.3402 32.872 74.1869 32.872H74.1409C74.2022 32.964 74.4015 33.0867 74.7389 33.24C75.0762 33.3627 75.4135 33.4853 75.7509 33.608C76.0882 33.7 76.2722 33.746 76.3029 33.746ZM86.8218 35.586C86.4844 35.586 86.1471 35.54 85.8098 35.448C85.3191 35.264 84.8284 34.758 84.3378 33.93L84.7058 33.838L84.3838 33.608L84.0158 32.458H83.9698C83.9391 32.366 83.9238 32.228 83.9238 32.044V31.722C83.9238 31.5993 84.0004 31.3847 84.1538 31.078C84.3071 30.7713 84.4451 30.48 84.5678 30.204L84.1078 30.296V30.066C84.1384 30.0353 84.1844 29.9587 84.2458 29.836C84.2764 29.744 84.3531 29.6827 84.4758 29.652C84.5064 29.6827 84.5218 29.7287 84.5218 29.79L84.6138 29.698V29.468C84.6138 29.3453 84.6138 29.2227 84.6138 29.1C84.6444 28.9467 84.7058 28.824 84.7978 28.732C84.7978 28.548 84.8131 28.4407 84.8438 28.41L84.8898 28.226H84.9818V28.042L85.2578 27.674C85.4111 27.5207 85.5031 27.444 85.5338 27.444V27.398C85.5031 27.4287 85.4571 27.444 85.3958 27.444C85.2731 27.444 85.2118 27.3827 85.2118 27.26C85.2118 27.2293 85.2271 27.1987 85.2578 27.168V26.938C85.2884 26.9073 85.3038 26.8307 85.3038 26.708C85.3038 26.5853 85.2731 26.4933 85.2118 26.432L85.5338 26.064L85.7178 26.11L85.6718 26.064H85.7638L85.8098 26.018L85.9478 25.512L86.1778 25.88L86.3158 25.098C86.3464 24.9447 86.3771 24.7913 86.4078 24.638C86.4384 24.4847 86.4691 24.3313 86.4998 24.178L87.0058 24.132V23.764H86.8678V23.534L87.0978 23.304V23.35L87.1438 23.304V23.074L87.5578 22.798V22.614C87.7724 22.4913 87.9564 22.2767 88.1098 21.97C88.2018 21.7553 88.4164 21.6173 88.7538 21.556H88.4778L88.5238 21.51L88.3398 21.648V21.28H88.4318L88.4778 21.188H88.5238L88.6158 21.004V20.774C88.7998 20.6513 88.9838 20.498 89.1678 20.314C89.3824 20.13 89.4898 19.9307 89.4898 19.716L89.6738 19.578V19.394L89.8578 19.486L90.4558 18.934V18.75L90.8238 18.52L91.0078 18.244C91.0078 18.152 91.0538 18.106 91.1458 18.106C91.1764 18.106 91.2378 18.1367 91.3298 18.198C91.4524 18.2287 91.5444 18.2593 91.6058 18.29H91.8818C92.3724 18.29 92.8631 18.474 93.3538 18.842C93.8444 19.1793 94.2584 19.5933 94.5958 20.084C94.9331 20.5747 95.1018 21.0653 95.1018 21.556C95.1018 21.7093 95.1478 21.8627 95.2398 22.016C95.2704 22.108 95.2858 22.2 95.2858 22.292C95.3164 22.384 95.3318 22.4913 95.3318 22.614V22.798C95.3318 22.9207 95.3164 22.9973 95.2858 23.028C94.7644 24.2547 93.9518 25.4353 92.8478 26.57C91.7744 27.7047 90.6551 28.594 89.4898 29.238C89.2444 29.3607 88.9684 29.4833 88.6618 29.606C88.3551 29.7287 88.0484 29.79 87.7418 29.79C87.6498 29.79 87.5884 29.7747 87.5578 29.744L87.2358 29.652C87.3278 29.6213 87.4658 29.5447 87.6498 29.422C87.7111 29.3913 87.7724 29.3607 87.8338 29.33C87.8951 29.2993 87.9564 29.2687 88.0178 29.238L88.2938 29.1C88.3551 29.1 88.4011 29.0847 88.4318 29.054L88.3858 29.008C88.3858 28.8853 88.4624 28.824 88.6158 28.824C88.7998 28.7013 88.9531 28.6247 89.0758 28.594L89.5358 28.456C89.7198 28.3947 89.8731 28.3487 89.9958 28.318C90.1491 28.2567 90.2258 28.1647 90.2258 28.042C90.3484 27.95 90.5018 27.7507 90.6858 27.444C90.9004 27.076 91.0538 26.846 91.1458 26.754L91.5598 26.662L92.0198 25.972L91.9278 25.788L92.2958 25.604V25.42H92.3878C92.7251 25.052 92.9858 24.73 93.1698 24.454C93.3844 24.1473 93.5684 23.7487 93.7218 23.258C93.7218 23.1967 93.7678 23.166 93.8598 23.166V23.12C94.0438 22.752 94.1358 22.3993 94.1358 22.062C94.1358 21.326 93.7831 20.958 93.0778 20.958C93.0164 20.958 92.9398 20.9427 92.8478 20.912C92.7251 20.912 92.6638 20.9427 92.6638 21.004H92.8938L92.6638 21.188C92.5104 21.2493 92.3571 21.3413 92.2038 21.464C92.0811 21.5867 92.0198 21.7553 92.0198 21.97H91.8358C91.8971 21.97 91.9431 22.0313 91.9738 22.154C91.7591 22.154 91.6058 22.2153 91.5138 22.338L91.7438 22.476C91.6824 22.5373 91.6058 22.5987 91.5138 22.66C91.4218 22.6907 91.3298 22.7367 91.2378 22.798C91.1458 22.8287 91.0538 22.8747 90.9618 22.936C90.8698 22.9667 90.7931 23.0127 90.7318 23.074C90.3944 23.3193 90.2258 23.5493 90.2258 23.764C90.2258 23.7947 90.2411 23.8253 90.2718 23.856C90.3024 23.8867 90.3331 23.9173 90.3638 23.948C90.4251 23.9787 90.4864 24.0247 90.5478 24.086L90.1798 24.04C90.1798 24.04 90.1951 24.04 90.2258 24.04C90.2564 24.0093 90.2871 23.994 90.3178 23.994C90.1951 23.994 90.1031 24.0093 90.0418 24.04C89.9804 24.04 89.9804 24.0707 90.0418 24.132L90.0878 24.178C90.0878 24.178 90.0724 24.178 90.0418 24.178C90.0418 24.178 90.0418 24.1933 90.0418 24.224C90.0111 24.2547 89.9958 24.2853 89.9958 24.316H89.9038C89.7811 24.4693 89.6584 24.6227 89.5358 24.776C89.4438 24.9293 89.3671 25.0827 89.3058 25.236C89.1831 25.512 89.0144 25.788 88.7998 26.064L89.1218 26.294H88.7998L88.6158 26.478V26.708L88.3398 26.938L88.4318 26.984L87.9718 27.766L87.8338 27.812V28.18L87.3278 28.732L87.3738 28.916H87.2818V29.238C87.0671 29.4527 86.9291 29.7287 86.8678 30.066C86.8371 30.3727 86.7144 30.6793 86.4998 30.986H86.7758L86.4078 31.216V31.354C86.3771 31.3847 86.3618 31.4307 86.3618 31.492C86.3618 31.6147 86.3618 31.722 86.3618 31.814C86.3924 31.906 86.4231 31.998 86.4538 32.09C86.4844 32.182 86.4998 32.274 86.4998 32.366C86.5304 32.458 86.5458 32.5653 86.5458 32.688C86.5458 32.9333 86.6378 33.2553 86.8218 33.654C87.0364 34.022 87.2511 34.206 87.4658 34.206C88.0484 34.206 88.6311 34.0527 89.2138 33.746C89.7658 33.4087 90.3331 33.2247 90.9158 33.194L91.8818 32.412C92.3724 32.0133 92.8018 31.538 93.1698 30.986C93.5684 30.434 94.0131 29.9587 94.5038 29.56H94.5498L94.4578 29.468C94.5498 29.3453 94.6878 29.1613 94.8718 28.916C95.0558 28.6707 95.1631 28.4713 95.1938 28.318C95.2244 28.2873 95.2398 28.226 95.2398 28.134C95.2398 28.0727 95.2551 28.0267 95.2858 27.996C95.3471 27.8427 95.4391 27.766 95.5618 27.766C95.6844 27.766 95.7458 27.8427 95.7458 27.996C95.7458 28.088 95.7304 28.1493 95.6998 28.18C95.6998 28.4867 95.5618 28.9313 95.2858 29.514C95.0404 30.066 94.7491 30.4033 94.4118 30.526V30.664C94.2584 30.8173 94.1051 31.032 93.9518 31.308C93.7371 31.584 93.4304 31.9673 93.0318 32.458C92.6638 32.9487 92.3571 33.194 92.1118 33.194L91.4678 33.608V33.792C91.4678 33.9453 91.3758 34.0527 91.1918 34.114C91.0691 34.2673 90.9158 34.3287 90.7318 34.298C90.6398 34.482 90.4864 34.6047 90.2718 34.666C90.1798 34.6967 90.0418 34.7733 89.8578 34.896C89.7964 34.988 89.6431 35.08 89.3978 35.172C89.1831 35.264 89.0298 35.3253 88.9378 35.356C88.7844 35.4787 88.6004 35.5553 88.3858 35.586C88.1711 35.586 87.9871 35.586 87.8338 35.586H86.8218ZM105.214 51.088C104.999 51.088 104.769 50.95 104.523 50.674C104.339 50.398 104.155 50.1373 103.971 49.892C103.757 49.5853 103.649 49.2633 103.649 48.926C105.398 46.35 107.314 43.912 109.4 41.612C111.516 39.312 113.724 37.15 116.024 35.126C116.821 33.5007 117.603 31.906 118.37 30.342C119.167 28.7473 119.964 27.1527 120.762 25.558L119.658 26.846C119.29 27.306 118.906 27.7353 118.508 28.134C118.385 28.226 118.247 28.3487 118.094 28.502C117.94 28.6247 117.787 28.7627 117.634 28.916L116.898 29.744C116.775 29.8667 116.668 30.0047 116.576 30.158C116.484 30.3113 116.392 30.4647 116.3 30.618C116.208 30.7713 116.039 30.94 115.794 31.124C115.671 31.216 115.548 31.308 115.426 31.4C115.303 31.492 115.165 31.5993 115.012 31.722C114.889 31.8447 114.751 31.952 114.598 32.044C114.475 32.136 114.352 32.228 114.23 32.32C114.107 32.4427 113.984 32.55 113.862 32.642C113.739 32.7033 113.647 32.7647 113.586 32.826C113.463 32.9487 113.325 33.0713 113.172 33.194C113.049 33.286 112.911 33.4087 112.758 33.562C112.451 33.8687 112.114 34.022 111.746 34.022C111.194 34.022 110.78 33.7307 110.504 33.148C110.258 32.5347 110.136 31.9827 110.136 31.492C110.136 30.7867 110.274 30.0967 110.55 29.422C110.672 29.0847 110.795 28.7473 110.918 28.41C111.04 28.0727 111.163 27.7353 111.286 27.398L113.218 22.246C113.371 21.9087 113.524 21.556 113.678 21.188C113.862 20.82 114.046 20.452 114.23 20.084C114.598 19.3787 114.782 18.6273 114.782 17.83C114.782 17.738 114.797 17.6613 114.828 17.6C114.828 17.5693 114.797 17.5233 114.736 17.462C114.582 17.6153 114.398 17.7687 114.184 17.922C114 18.0447 113.8 18.1673 113.586 18.29C113.187 18.5047 112.819 18.8113 112.482 19.21C111.684 20.1607 110.964 21.1573 110.32 22.2C109.676 23.212 109.047 24.2393 108.434 25.282C108.372 25.4047 108.265 25.5427 108.112 25.696C107.989 25.8493 107.851 25.926 107.698 25.926C107.514 25.926 107.422 25.8187 107.422 25.604C107.422 25.2667 107.606 24.8373 107.973 24.316C108.342 23.764 108.587 23.2887 108.71 22.89C108.863 22.5527 109.032 22.3073 109.216 22.154C109.308 22.0927 109.384 22.016 109.446 21.924C109.538 21.8013 109.614 21.6787 109.676 21.556C109.982 20.912 110.442 20.1913 111.056 19.394C111.669 18.566 112.359 17.8607 113.126 17.278C113.923 16.6647 114.674 16.358 115.38 16.358C116.085 16.358 116.606 16.6033 116.944 17.094C117.281 17.5847 117.45 18.1367 117.45 18.75C117.45 19.3633 117.373 19.992 117.22 20.636C117.066 21.2493 116.898 21.832 116.714 22.384C116.775 22.4453 116.806 22.568 116.806 22.752C116.806 23.0587 116.714 23.3347 116.53 23.58C116.315 23.8253 116.192 24.086 116.162 24.362C116.039 25.006 115.886 25.4967 115.702 25.834C115.518 26.1407 115.272 26.5547 114.966 27.076C115.027 27.2293 114.935 27.5667 114.69 28.088C114.444 28.6093 114.276 28.9773 114.184 29.192C114.092 29.4067 114.015 29.606 113.954 29.79C113.892 29.974 113.831 30.1733 113.77 30.388V30.618C113.739 30.6793 113.724 30.756 113.724 30.848C113.816 30.7867 113.892 30.7253 113.954 30.664C114.046 30.6027 114.107 30.5567 114.138 30.526C114.23 30.434 114.322 30.3573 114.414 30.296C114.536 30.2347 114.659 30.1733 114.782 30.112C114.812 30.0813 114.843 30.066 114.874 30.066C114.904 30.066 114.935 30.0507 114.966 30.02C114.996 29.7133 115.165 29.56 115.472 29.56C115.533 29.5293 115.594 29.4987 115.656 29.468C115.717 29.4067 115.778 29.3607 115.84 29.33C115.962 29.2073 116.054 29.1307 116.116 29.1C116.238 28.7933 116.407 28.5787 116.622 28.456C116.714 28.3947 116.806 28.3333 116.898 28.272C117.02 28.18 117.143 28.1033 117.266 28.042L118.784 26.478C118.906 26.3247 118.998 26.1867 119.06 26.064C119.152 25.9107 119.213 25.788 119.244 25.696C119.305 25.5427 119.566 25.3433 120.026 25.098L120.256 24.776V24.454C120.256 24.3007 120.271 24.1627 120.302 24.04C120.332 23.9173 120.424 23.8253 120.578 23.764C120.762 23.672 120.884 23.5033 120.946 23.258C121.007 22.982 121.084 22.798 121.176 22.706L122.004 21.602C122.065 21.4487 122.111 21.3567 122.142 21.326L122.418 21.05V21.004C122.418 20.9427 122.402 20.8967 122.372 20.866C122.31 20.8047 122.28 20.7433 122.28 20.682C122.28 20.59 122.326 20.544 122.418 20.544L122.602 20.406C122.939 20.4367 123.322 20.5133 123.752 20.636C124.212 20.728 124.442 21.004 124.442 21.464C124.442 21.5253 124.426 21.6173 124.396 21.74C124.396 21.8627 124.38 22.0007 124.35 22.154C124.319 23.166 124.104 24.178 123.706 25.19C123.491 25.6807 123.292 26.1713 123.108 26.662C122.924 27.1527 122.74 27.6587 122.556 28.18C122.402 28.64 122.249 29.1 122.096 29.56C121.942 30.02 121.789 30.4953 121.636 30.986C122.31 30.4033 123.016 29.882 123.752 29.422C124.488 28.962 125.254 28.5327 126.052 28.134C126.297 27.95 126.542 27.858 126.788 27.858C126.91 27.858 126.972 27.9193 126.972 28.042C126.972 28.134 126.849 28.2567 126.604 28.41L126.098 28.778C125.392 29.1767 124.718 29.606 124.074 30.066C123.46 30.526 122.847 31.0167 122.234 31.538C122.019 31.6913 121.804 31.86 121.59 32.044C121.375 32.228 121.176 32.412 120.992 32.596C120.838 32.7493 120.7 32.9487 120.578 33.194C120.455 33.47 120.317 33.7153 120.164 33.93C120.102 34.022 120.041 34.114 119.98 34.206C119.918 34.298 119.872 34.4053 119.842 34.528C119.811 34.7427 119.719 34.9727 119.566 35.218C119.443 35.4327 119.32 35.632 119.198 35.816C119.106 36 119.014 36.1993 118.922 36.414C118.799 36.598 118.692 36.782 118.6 36.966C118.508 37.15 118.4 37.3493 118.278 37.564C118.216 37.6253 118.14 37.7173 118.048 37.84C117.956 37.9627 117.864 38.116 117.772 38.3C117.649 38.4533 117.557 38.5913 117.496 38.714C117.434 38.8673 117.373 38.9747 117.312 39.036C117.128 39.3733 116.928 39.6647 116.714 39.91C116.53 40.1553 116.376 40.278 116.254 40.278H116.116C116.116 40.186 116.146 40.0787 116.208 39.956C116.238 39.8947 116.269 39.818 116.3 39.726C116.33 39.6647 116.361 39.6033 116.392 39.542C116.637 39.1433 116.928 38.6527 117.266 38.07C117.634 37.4873 117.818 37.0733 117.818 36.828C117.818 36.7667 117.787 36.736 117.726 36.736L117.358 37.288C117.112 37.4413 116.944 37.6407 116.852 37.886L116.438 38.576L114.782 41.198C114.812 41.2287 114.828 41.2747 114.828 41.336C114.828 41.428 114.812 41.4893 114.782 41.52C114.751 41.5507 114.736 41.5813 114.736 41.612C114.736 41.6427 114.72 41.6733 114.69 41.704L114.598 41.796C114.475 41.9187 114.414 42.0873 114.414 42.302V42.348C114.444 42.3787 114.46 42.4093 114.46 42.44C114.46 42.5627 114.398 42.6393 114.276 42.67C114.092 42.7313 114 42.762 114 42.762L113.908 42.808C113.846 42.992 113.739 43.1607 113.586 43.314C113.524 43.4673 113.402 43.682 113.218 43.958C113.064 44.234 112.896 44.3567 112.712 44.326C112.405 44.694 112.114 45.0927 111.838 45.522C111.562 45.9513 111.332 46.396 111.148 46.856C111.148 46.8867 111.163 46.9173 111.194 46.948V47.04C111.194 47.1627 111.117 47.224 110.964 47.224H110.826L110.688 47.178L110.642 47.132C110.611 47.132 110.58 47.1167 110.55 47.086C110.488 47.4233 110.32 47.6533 110.044 47.776C109.952 47.96 109.829 48.0827 109.676 48.144C109.553 48.1747 109.4 48.282 109.216 48.466H109.17C109.108 48.5887 109.001 48.7113 108.848 48.834C108.694 48.9567 108.556 49.0333 108.434 49.064L108.388 49.11H108.296L108.204 49.156C108.112 49.3093 107.958 49.4473 107.744 49.57C107.56 49.6927 107.391 49.7847 107.238 49.846C107.146 49.9993 106.962 50.1987 106.686 50.444C106.44 50.72 106.241 50.858 106.088 50.858H105.904C105.658 51.0113 105.428 51.088 105.214 51.088ZM105.72 48.926C105.904 48.8647 106.088 48.8033 106.272 48.742C106.456 48.6807 106.624 48.5733 106.778 48.42C107.054 48.1747 107.468 47.7453 108.02 47.132C108.572 46.5493 109.154 45.89 109.768 45.154C110.381 44.418 110.933 43.7587 111.424 43.176C111.853 42.5933 112.313 41.9493 112.804 41.244C113.325 40.5693 113.785 39.91 114.184 39.266C114.582 38.6527 114.812 38.1773 114.874 37.84C114.414 38.3 113.969 38.7447 113.54 39.174C113.11 39.634 112.666 40.0787 112.206 40.508C111.255 41.428 110.335 42.394 109.446 43.406C108.924 44.0193 108.434 44.648 107.973 45.292C107.514 45.936 107.069 46.58 106.64 47.224C106.456 47.5 106.272 47.7607 106.088 48.006C105.842 48.282 105.704 48.5733 105.674 48.88C105.704 48.88 105.72 48.8953 105.72 48.926ZM129.575 38.07C129.237 38.07 128.946 37.978 128.701 37.794C128.486 37.6407 128.271 37.4413 128.057 37.196C127.658 36.6747 127.321 36.23 127.045 35.862C126.769 35.494 126.631 34.942 126.631 34.206V32.78C126.631 32.504 126.707 32.09 126.861 31.538C127.014 30.9553 127.198 30.388 127.413 29.836C127.658 29.284 127.873 28.916 128.057 28.732C128.333 27.8427 128.655 26.9687 129.023 26.11C129.391 25.2513 129.866 24.4693 130.449 23.764C130.142 23.028 129.943 22.2767 129.851 21.51C129.759 20.7127 129.713 19.9153 129.713 19.118C129.713 18.8727 129.713 18.658 129.713 18.474C129.743 18.2593 129.774 18.0293 129.805 17.784L129.943 17.6L129.989 17.554V17.37C129.958 17.3393 129.943 17.2933 129.943 17.232C129.943 17.1093 129.989 16.91 130.081 16.634C130.173 16.358 130.249 16.082 130.311 15.806C130.403 15.53 130.449 15.3767 130.449 15.346C130.449 15.2847 130.51 15.2387 130.633 15.208L130.863 15.116C130.893 15.0853 130.97 15.0393 131.093 14.978L131.231 14.886C131.507 14.518 131.905 14.2573 132.427 14.104C132.979 13.9507 133.469 13.874 133.899 13.874C134.819 13.874 135.493 14.196 135.923 14.84C136.383 15.4533 136.735 16.1587 136.981 16.956C137.195 16.8027 137.41 16.726 137.625 16.726C137.717 16.726 137.793 16.7567 137.855 16.818C138.345 16.9407 138.897 17.2013 139.511 17.6C140.155 17.9987 140.477 18.428 140.477 18.888V18.98C140.477 19.1333 140.323 19.348 140.017 19.624C139.71 19.9 139.342 20.1913 138.913 20.498C138.514 20.774 138.115 21.0347 137.717 21.28C137.349 21.5253 137.088 21.694 136.935 21.786C136.72 21.9087 136.505 22.016 136.291 22.108C136.168 22.1387 136.061 22.2 135.969 22.292C135.877 22.3533 135.769 22.4147 135.647 22.476C135.493 22.5987 135.34 22.7213 135.187 22.844C135.064 22.9667 134.926 23.1047 134.773 23.258L134.359 23.672C134.267 23.764 134.19 23.856 134.129 23.948C134.067 24.0093 133.991 24.0707 133.899 24.132C133.837 24.1933 133.73 24.27 133.577 24.362C133.454 24.454 133.316 24.5613 133.163 24.684C132.795 24.9293 132.595 25.1593 132.565 25.374C132.534 25.4047 132.473 25.5427 132.381 25.788C132.319 26.0027 132.289 26.156 132.289 26.248C132.289 26.5853 132.335 26.9993 132.427 27.49C132.519 27.95 132.657 28.3947 132.841 28.824C132.933 29.0693 132.933 29.3453 132.841 29.652C132.749 29.928 132.58 29.974 132.335 29.79C132.089 29.5447 131.875 29.2227 131.691 28.824C131.507 28.4253 131.399 28.134 131.369 27.95C131.338 27.8887 131.353 27.8427 131.415 27.812C131.476 27.7813 131.476 27.7353 131.415 27.674L131.323 27.582C131.292 27.5513 131.277 27.5053 131.277 27.444C131.277 27.444 131.246 27.4133 131.185 27.352C130.939 27.5973 130.679 28.0113 130.403 28.594C130.127 29.146 129.927 29.5753 129.805 29.882L129.529 30.526C129.375 30.8633 129.268 31.032 129.207 31.032C129.084 31.032 129.023 30.9553 129.023 30.802V30.756C129.023 30.572 129.069 30.3727 129.161 30.158L129.437 29.422C129.283 29.6673 129.145 29.9433 129.023 30.25C128.931 30.526 128.885 30.71 128.885 30.802V30.848L128.931 30.94C128.931 30.9707 128.946 31.0013 128.977 31.032V31.216C128.946 31.216 128.931 31.2467 128.931 31.308C128.869 31.6147 128.793 31.9213 128.701 32.228C128.609 32.5347 128.517 32.8413 128.425 33.148C128.21 33.7 128.103 34.344 128.103 35.08C128.103 35.5707 128.195 36 128.379 36.368C128.563 36.736 128.915 36.92 129.437 36.92C129.713 36.92 129.958 36.874 130.173 36.782C130.418 36.69 130.771 36.46 131.231 36.092C131.721 35.7547 132.212 35.356 132.703 34.896C133.193 34.4053 133.607 33.9453 133.945 33.516C134.313 33.0867 134.497 32.7647 134.497 32.55C134.589 32.3967 134.711 32.2433 134.865 32.09C135.018 31.906 135.064 31.7373 135.003 31.584C135.401 30.9707 135.739 30.2347 136.015 29.376C136.321 28.4867 136.567 27.582 136.751 26.662C136.965 25.742 137.103 24.9293 137.165 24.224C137.226 23.9787 137.272 23.81 137.303 23.718C137.364 23.5953 137.41 23.5187 137.441 23.488L137.487 23.442C137.548 23.3807 137.579 23.2887 137.579 23.166C137.579 23.1047 137.579 23.028 137.579 22.936C137.579 22.844 137.563 22.752 137.533 22.66C137.471 22.476 137.441 22.3073 137.441 22.154C137.441 22.0313 137.487 21.8627 137.579 21.648C137.671 21.4333 137.809 21.326 137.993 21.326C138.207 21.326 138.376 21.4947 138.499 21.832C138.621 22.1693 138.713 22.5373 138.775 22.936C138.867 23.304 138.913 23.5953 138.913 23.81C138.913 24.5153 138.836 25.3127 138.683 26.202C138.529 27.0607 138.33 27.8427 138.085 28.548C137.87 29.1307 137.625 29.6367 137.349 30.066C137.103 30.4953 136.812 30.9707 136.475 31.492L136.015 32.228L135.831 32.55C135.8 32.5193 135.769 32.5807 135.739 32.734C135.739 32.8567 135.708 32.918 135.647 32.918C135.616 32.918 135.585 32.9487 135.555 33.01C135.555 33.0407 135.539 33.0713 135.509 33.102C135.355 33.3473 135.171 33.562 134.957 33.746C134.834 33.8687 134.711 33.9913 134.589 34.114C134.497 34.206 134.42 34.3133 134.359 34.436C134.021 34.9267 133.592 35.448 133.071 36C132.58 36.5827 132.028 37.0733 131.415 37.472C130.832 37.8707 130.219 38.07 129.575 38.07ZM131.599 22.568L131.645 22.476L131.737 22.108C131.829 21.7093 132.166 21.234 132.749 20.682C133.331 20.13 133.807 19.67 134.175 19.302C134.451 19.0567 134.727 18.7807 135.003 18.474C135.279 18.1673 135.555 17.9067 135.831 17.692C135.769 17.4467 135.631 17.1247 135.417 16.726C135.233 16.3273 135.018 15.9747 134.773 15.668C134.558 15.3307 134.343 15.162 134.129 15.162C133.791 15.162 133.485 15.3 133.209 15.576L133.117 15.668C133.086 15.76 133.025 15.806 132.933 15.806L132.703 15.944C132.703 15.9747 132.687 15.99 132.657 15.99V16.082C132.534 16.358 132.396 16.6493 132.243 16.956C132.151 17.0787 132.074 17.2013 132.013 17.324C131.982 17.416 131.951 17.4927 131.921 17.554C131.767 18.0753 131.629 18.612 131.507 19.164C131.415 19.716 131.369 20.268 131.369 20.82C131.369 21.1267 131.384 21.4333 131.415 21.74C131.445 22.016 131.507 22.292 131.599 22.568ZM154.211 37.058C153.751 37.058 153.352 36.9507 153.015 36.736C152.708 36.5213 152.386 36.2453 152.049 35.908L152.141 35.816C152.141 35.7853 152.11 35.7393 152.049 35.678C151.834 35.402 151.681 35.1873 151.589 35.034C151.528 34.8807 151.466 34.7273 151.405 34.574C151.374 34.4207 151.344 34.2673 151.313 34.114C151.282 33.9607 151.221 33.746 151.129 33.47C151.098 33.3473 151.098 33.2707 151.129 33.24V32.32C151.129 32.1667 151.129 32.0287 151.129 31.906C151.129 31.7527 151.114 31.5993 151.083 31.446C151.052 31.3233 151.022 31.216 150.991 31.124C150.991 31.0013 150.991 30.9093 150.991 30.848C150.991 30.8173 151.022 30.71 151.083 30.526C151.083 30.434 151.098 30.3727 151.129 30.342C151.068 30.2807 151.037 30.2347 151.037 30.204C151.037 30.1733 151.052 30.1427 151.083 30.112L151.129 30.066C151.129 30.066 151.144 30.0507 151.175 30.02C151.175 29.9893 151.19 29.9587 151.221 29.928C151.19 29.928 151.175 29.9127 151.175 29.882C151.175 29.8207 151.19 29.79 151.221 29.79C151.16 29.4833 151.175 29.2533 151.267 29.1C151.359 28.916 151.359 28.6553 151.267 28.318H151.497V27.996L151.543 27.95L151.313 27.628L151.635 27.582V27.536C151.635 27.5053 151.65 27.4747 151.681 27.444C152.018 26.6467 152.294 25.8647 152.509 25.098L152.233 25.144V24.822H152.325C152.478 24.5767 152.616 24.3007 152.739 23.994C152.8 23.8407 152.862 23.718 152.923 23.626C152.984 23.534 153.03 23.4267 153.061 23.304L153.015 23.35C152.8 23.5647 152.678 23.7947 152.647 24.04C152.616 24.1933 152.555 24.3313 152.463 24.454C152.402 24.5767 152.31 24.6993 152.187 24.822C152.064 24.9447 151.957 25.0213 151.865 25.052C151.742 25.144 151.65 25.2667 151.589 25.42C151.313 26.0333 150.976 26.616 150.577 27.168C150.209 27.72 149.841 28.2567 149.473 28.778C149.412 28.87 149.32 28.9773 149.197 29.1C149.074 29.2227 148.982 29.3607 148.921 29.514C148.829 29.6673 148.752 29.8207 148.691 29.974L148.415 30.434C148.354 30.5567 148.277 30.664 148.185 30.756C148.093 30.848 147.986 30.9553 147.863 31.078L147.219 31.676C146.452 32.5653 145.655 33.4547 144.827 34.344C144.03 35.2027 143.094 35.8927 142.021 36.414C141.929 36.4447 141.852 36.46 141.791 36.46C141.73 36.4907 141.668 36.506 141.607 36.506C141.239 36.506 140.932 36.3373 140.687 36C140.472 35.6627 140.365 35.3253 140.365 34.988C140.365 34.8347 140.396 34.666 140.457 34.482L140.641 34.022C140.702 33.838 140.733 33.6693 140.733 33.516C140.733 33.3627 140.764 33.194 140.825 33.01C140.917 32.6727 141.024 32.366 141.147 32.09C141.27 31.7833 141.408 31.4613 141.561 31.124C141.561 31.124 141.592 30.986 141.653 30.71C141.653 30.4953 141.668 30.3573 141.699 30.296C141.546 30.2347 141.469 30.1887 141.469 30.158C141.469 30.1273 141.484 30.112 141.515 30.112V30.066C141.607 29.882 141.714 29.6673 141.837 29.422C141.99 29.146 142.19 28.9927 142.435 28.962C142.588 28.6247 142.726 28.3027 142.849 27.996C143.002 27.6893 143.156 27.3827 143.309 27.076C143.616 26.4933 143.846 25.834 143.999 25.098L144.137 24.914H144.045L143.907 24.73L144.091 24.454L143.815 24.316L144.091 24.178H143.907V24.086C143.876 24.0553 143.861 24.0093 143.861 23.948C143.861 23.8867 143.876 23.8407 143.907 23.81C144.03 23.5953 144.106 23.3807 144.137 23.166C144.198 22.9207 144.29 22.7367 144.413 22.614H144.367L144.321 22.66H144.229C144.137 22.66 144.091 22.6293 144.091 22.568V22.522C144.091 22.1847 144.183 21.8627 144.367 21.556C144.398 21.4333 144.428 21.326 144.459 21.234C144.49 21.142 144.52 21.0347 144.551 20.912C144.582 20.82 144.597 20.728 144.597 20.636C144.628 20.544 144.643 20.452 144.643 20.36C144.643 20.2373 144.628 20.1453 144.597 20.084C144.536 19.9613 144.505 19.854 144.505 19.762C144.505 19.6393 144.551 19.532 144.643 19.44C144.766 19.348 144.873 19.2713 144.965 19.21V19.164C144.904 19.1333 144.781 19.0873 144.597 19.026C144.444 18.934 144.352 18.888 144.321 18.888L144.367 18.704C144.306 18.7653 144.26 18.796 144.229 18.796C144.26 18.796 144.26 18.8113 144.229 18.842H144.137C144.045 18.8113 143.876 18.7653 143.631 18.704C143.355 18.6427 143.217 18.5507 143.217 18.428C143.217 18.3667 143.294 18.3053 143.447 18.244C143.6 18.152 143.708 18.106 143.769 18.106C144.198 18.198 144.72 18.3207 145.333 18.474C145.977 18.5967 146.575 18.75 147.127 18.934C147.71 19.118 148.108 19.3633 148.323 19.67C148.384 19.762 148.415 19.8693 148.415 19.992C148.446 20.084 148.461 20.176 148.461 20.268C148.461 20.544 148.384 20.8507 148.231 21.188C148.108 21.5253 147.986 21.832 147.863 22.108C147.771 22.292 147.725 22.4147 147.725 22.476C147.725 22.476 147.694 22.568 147.633 22.752C147.48 22.9053 147.372 23.028 147.311 23.12C147.188 23.2427 147.05 23.3347 146.897 23.396L146.943 23.534L146.989 23.58C147.05 23.6413 147.081 23.6873 147.081 23.718C147.142 23.8407 147.173 23.9633 147.173 24.086C147.173 24.1473 147.158 24.224 147.127 24.316C147.096 24.408 147.02 24.4693 146.897 24.5L146.805 24.592H146.851C146.79 24.7147 146.759 24.822 146.759 24.914V25.052C146.759 25.1133 146.744 25.19 146.713 25.282C146.682 25.374 146.621 25.4353 146.529 25.466C146.468 25.6193 146.36 25.8647 146.207 26.202C146.084 26.5393 145.962 26.7693 145.839 26.892L145.701 27.168L145.747 27.306L145.563 27.444C145.532 27.6587 145.41 27.8733 145.195 28.088C144.98 28.2413 144.904 28.456 144.965 28.732H144.873C144.904 28.7627 144.919 28.7933 144.919 28.824C144.919 28.8853 144.888 28.916 144.827 28.916C144.796 29.008 144.735 29.1153 144.643 29.238C144.551 29.33 144.413 29.4067 144.229 29.468C144.137 29.8053 143.999 30.2653 143.815 30.848C143.631 31.4 143.462 31.906 143.309 32.366C143.156 32.826 143.064 33.102 143.033 33.194C143.064 33.2247 143.125 33.24 143.217 33.24C143.34 33.24 143.524 33.1787 143.769 33.056C144.014 32.9027 144.106 32.7187 144.045 32.504C144.168 32.504 144.275 32.4273 144.367 32.274C144.49 32.1513 144.597 32.0747 144.689 32.044C145.057 31.7373 145.41 31.4307 145.747 31.124C146.084 30.7867 146.406 30.434 146.713 30.066C147.02 29.698 147.326 29.33 147.633 28.962C147.94 28.594 148.246 28.2413 148.553 27.904C148.584 27.8733 148.768 27.6433 149.105 27.214C149.473 26.7847 149.902 26.2633 150.393 25.65C150.884 25.0367 151.374 24.408 151.865 23.764C152.356 23.12 152.754 22.568 153.061 22.108C153.368 21.648 153.506 21.3567 153.475 21.234H153.843L153.889 21.28L153.981 21.188L153.751 21.234V20.958H153.843C153.904 20.866 153.966 20.774 154.027 20.682C154.088 20.59 154.15 20.5133 154.211 20.452C154.303 20.36 154.38 20.176 154.441 19.9C154.472 19.7773 154.502 19.67 154.533 19.578C154.564 19.4553 154.594 19.3327 154.625 19.21C154.686 18.9953 154.855 18.8727 155.131 18.842L155.177 18.796C155.453 18.796 155.867 18.842 156.419 18.934C156.971 19.026 157.462 19.164 157.891 19.348C158.351 19.532 158.581 19.7773 158.581 20.084C158.581 20.3293 158.474 20.636 158.259 21.004C158.075 21.372 157.86 21.7247 157.615 22.062C157.492 22.2153 157.385 22.384 157.293 22.568C157.201 22.752 157.094 22.9207 156.971 23.074C156.756 23.4113 156.572 23.764 156.419 24.132H156.281V24.224C156.22 24.2547 156.128 24.3313 156.005 24.454C155.913 24.546 155.836 24.6227 155.775 24.684H155.913C155.913 24.8373 155.898 24.96 155.867 25.052L155.821 25.42L155.545 25.88H155.315C155.315 26.0027 155.238 26.064 155.085 26.064C154.993 26.064 154.947 26.0333 154.947 25.972C154.916 25.972 154.901 25.926 154.901 25.834C154.901 25.7727 154.932 25.742 154.993 25.742L155.223 25.282L155.131 25.19C155.039 25.4047 154.962 25.5887 154.901 25.742C154.87 25.8953 154.886 26.0947 154.947 26.34H154.901L154.947 26.386L154.717 26.478L154.671 26.8L154.533 27.214C154.441 27.5207 154.303 27.7047 154.119 27.766L154.211 27.95L154.073 28.502L153.935 28.686H153.981L153.383 29.606C153.414 29.6367 153.429 29.7133 153.429 29.836C153.429 30.0813 153.368 30.3113 153.245 30.526C153.122 30.7407 153.03 30.986 152.969 31.262L153.015 31.4L152.923 31.492C152.954 31.492 152.969 31.5227 152.969 31.584L153.383 31.722C153.23 31.722 153.122 31.7067 153.061 31.676V31.998C153.061 32.1207 153.061 32.2433 153.061 32.366C153.061 32.458 153.046 32.5653 153.015 32.688C152.984 32.8107 152.954 32.918 152.923 33.01C152.923 33.102 152.923 33.2093 152.923 33.332C152.923 33.5773 152.969 33.792 153.061 33.976C153.122 34.068 153.153 34.1753 153.153 34.298C153.184 34.39 153.214 34.4973 153.245 34.62C153.276 34.6813 153.291 34.7887 153.291 34.942C153.291 35.0647 153.291 35.2027 153.291 35.356C153.322 35.6013 153.521 35.816 153.889 36C154.288 36.184 154.61 36.276 154.855 36.276C155.162 36.276 155.407 36.23 155.591 36.138C155.775 36.046 155.99 35.9233 156.235 35.77L156.189 35.816H156.373V35.862C156.22 36.1993 155.898 36.4753 155.407 36.69C154.916 36.9353 154.518 37.058 154.211 37.058ZM144.367 28.916H144.413C144.474 28.7933 144.536 28.7167 144.597 28.686L144.551 28.502C144.49 28.594 144.428 28.732 144.367 28.916ZM163.965 32.642C163.873 32.642 163.797 32.6113 163.735 32.55C163.705 32.5807 163.613 32.596 163.459 32.596C163.061 32.596 162.662 32.32 162.263 31.768C161.865 31.216 161.665 30.7407 161.665 30.342C161.665 29.6367 161.849 28.9007 162.217 28.134L163.229 26.018C163.413 25.65 163.505 25.4047 163.505 25.282C163.505 25.282 163.429 25.1593 163.275 24.914L163.045 24.684C162.984 24.6227 162.923 24.5767 162.861 24.546C162.831 24.4847 162.785 24.4233 162.723 24.362C162.539 24.1473 162.355 23.902 162.171 23.626C161.987 23.35 161.865 23.028 161.803 22.66C161.742 22.7213 161.604 22.9513 161.389 23.35C161.175 23.7487 160.96 24.132 160.745 24.5C160.531 24.868 160.362 25.052 160.239 25.052C160.178 25.052 160.132 25.0367 160.101 25.006C160.071 24.9753 160.025 24.96 159.963 24.96C159.902 24.96 159.825 25.0827 159.733 25.328C159.611 25.512 159.442 25.788 159.227 26.156C159.013 26.4933 158.798 26.8153 158.583 27.122C158.369 27.4287 158.169 27.582 157.985 27.582C157.863 27.582 157.801 27.5207 157.801 27.398C157.801 27.306 157.863 27.1373 157.985 26.892C158.108 26.616 158.246 26.3553 158.399 26.11C158.583 25.834 158.706 25.6653 158.767 25.604C159.135 25.0827 159.442 24.6227 159.687 24.224C159.933 23.8253 160.163 23.4113 160.377 22.982C160.561 22.5833 160.745 22.1847 160.929 21.786C161.144 21.3567 161.389 20.8813 161.665 20.36C161.727 19.9307 161.819 19.486 161.941 19.026C162.401 17.646 162.938 16.45 163.551 15.438C164.195 14.3953 164.993 13.3373 165.943 12.264C166.158 12.0493 166.403 11.7887 166.679 11.482C166.986 11.1447 167.293 10.838 167.599 10.562C167.906 10.286 168.167 10.148 168.381 10.148C168.565 10.148 168.78 10.2247 169.025 10.378C169.148 10.4393 169.255 10.5007 169.347 10.562C169.439 10.6233 169.531 10.6847 169.623 10.746L170.543 11.252C170.881 11.436 171.049 11.7273 171.049 12.126C171.049 12.2793 171.034 12.3713 171.003 12.402C170.911 12.7393 170.605 13.1073 170.083 13.506C169.593 13.874 169.041 14.2573 168.427 14.656C167.845 15.0547 167.369 15.438 167.001 15.806C166.449 16.2967 165.974 16.8487 165.575 17.462C165.177 18.0753 164.809 18.7347 164.471 19.44C164.441 19.5627 164.395 19.67 164.333 19.762C164.303 19.854 164.272 19.9613 164.241 20.084C164.211 20.2987 164.134 20.544 164.011 20.82C163.981 20.8813 163.95 20.958 163.919 21.05C163.889 21.1113 163.873 21.188 163.873 21.28C163.873 21.4333 163.889 21.5407 163.919 21.602C163.95 21.694 163.965 21.8167 163.965 21.97C163.965 22.154 163.95 22.2767 163.919 22.338C163.889 22.43 163.873 22.568 163.873 22.752C163.873 23.0893 164.042 23.4113 164.379 23.718C164.717 23.994 165.039 24.3007 165.345 24.638C165.683 24.9753 165.851 25.3587 165.851 25.788C165.851 26.156 165.729 26.6007 165.483 27.122C165.238 27.6433 164.962 28.1647 164.655 28.686C164.349 29.2073 164.103 29.6827 163.919 30.112L163.689 30.664L163.597 30.986C163.597 31.0473 163.613 31.078 163.643 31.078L163.735 31.216C164.011 31.216 164.395 31.0167 164.885 30.618C165.376 30.2193 165.867 29.79 166.357 29.33C166.848 28.8393 167.185 28.502 167.369 28.318C167.737 27.9193 168.075 27.5053 168.381 27.076C168.688 26.616 168.979 26.156 169.255 25.696C169.317 25.5427 169.409 25.374 169.531 25.19C169.685 24.9753 169.838 24.868 169.991 24.868C170.175 24.868 170.267 24.9753 170.267 25.19C170.267 25.374 170.099 25.742 169.761 26.294C169.455 26.8153 169.117 27.3367 168.749 27.858C168.381 28.3793 168.121 28.7167 167.967 28.87L167.921 28.962V29.008C167.829 29.2227 167.691 29.3607 167.507 29.422C167.477 29.4527 167.431 29.5293 167.369 29.652C167.308 29.7747 167.262 29.8513 167.231 29.882C167.231 29.9433 167.185 30.0047 167.093 30.066L166.909 30.112C166.879 30.2347 166.787 30.342 166.633 30.434L166.357 30.71C166.327 30.71 166.311 30.7253 166.311 30.756C166.311 30.7867 166.296 30.802 166.265 30.802C166.235 30.986 166.112 31.078 165.897 31.078C165.836 31.2007 165.744 31.354 165.621 31.538C165.529 31.722 165.407 31.814 165.253 31.814C165.1 32.0287 164.901 32.136 164.655 32.136C164.625 32.1667 164.609 32.2127 164.609 32.274C164.609 32.3047 164.594 32.3353 164.563 32.366C164.502 32.5193 164.364 32.596 164.149 32.596C164.119 32.6267 164.057 32.642 163.965 32.642Z" fill="#CD1A40"/>
</svg>
