<svg width="113" height="42" viewBox="0 0 113 42" fill="none" xmlns="http://www.w3.org/2000/svg">
<path d="M11.994 41.288C11.902 41.288 11.764 41.2573 11.58 41.196C11.4267 41.104 11.2733 41.0273 11.12 40.966C10.3227 40.5367 9.80133 39.9387 9.556 39.172C9.34133 38.3747 9.234 37.562 9.234 36.734C9.234 35.5687 9.35667 34.4187 9.602 33.284C9.878 32.1187 10.1847 30.984 10.522 29.88C11.4113 26.752 12.592 23.854 14.064 21.186C15.5667 18.4873 17.284 15.85 19.216 13.274C17.8973 13.7953 16.594 14.3627 15.306 14.976C14.018 15.5587 12.73 16.1567 11.442 16.77C10.7367 17.1073 10.0313 17.46 9.326 17.828C8.65133 18.196 7.97667 18.5947 7.302 19.024L4.542 20.818C4.41933 20.8793 4.312 20.9407 4.22 21.002C4.128 21.0633 4.036 21.1247 3.944 21.186L3.3 21.6C2.932 21.7533 2.656 21.83 2.472 21.83C1.92 21.83 1.52133 21.5847 1.276 21.094C1.06133 20.6033 0.954 20.1127 0.954 19.622C0.954 19.4687 0.969333 19.2847 1 19.07C1.03067 18.8553 1.10733 18.6713 1.23 18.518C1.414 18.2727 1.75133 17.92 2.242 17.46C2.76333 17 3.14667 16.678 3.392 16.494C4.404 15.6047 5.462 14.8227 6.566 14.148C7.67 13.4427 8.80467 12.7373 9.97 12.032C10.3073 11.7867 10.6447 11.5567 10.982 11.342C11.35 11.1273 11.718 10.9127 12.086 10.698C12.2087 10.6367 12.3007 10.606 12.362 10.606C12.3927 10.606 12.4693 10.5753 12.592 10.514C12.776 10.4527 12.96 10.3607 13.144 10.238C13.236 10.1767 13.328 10.1153 13.42 10.054C13.512 9.99266 13.604 9.94666 13.696 9.916C15.352 8.996 17.054 8.19867 18.802 7.524C20.5807 6.81867 22.39 6.22066 24.23 5.73C24.598 5.27 24.9967 4.82533 25.426 4.396C25.6407 4.18133 25.8247 3.95133 25.978 3.706C26.162 3.46066 26.3307 3.21533 26.484 2.97C26.9133 3.062 27.3733 3.2 27.864 3.384C28.3547 3.53733 28.7687 3.752 29.106 4.028C29.2593 4.028 29.4127 4.028 29.566 4.028C29.7193 4.028 29.8727 4.01266 30.026 3.982H30.946C31.222 3.82866 31.59 3.76733 32.05 3.798C32.2953 3.82867 32.51 3.844 32.694 3.844C32.9087 3.81333 33.0773 3.798 33.2 3.798H33.384C33.6907 3.67533 34.166 3.55267 34.81 3.43C35.4847 3.30733 36.1593 3.2 36.834 3.108C37.5087 3.016 37.9993 2.97 38.306 2.97C38.766 2.97 39.3027 3.016 39.916 3.108C40.56 3.2 41.112 3.292 41.572 3.384C42.1547 3.50666 42.7833 3.90533 43.458 4.58C44.1633 5.224 44.792 5.94467 45.344 6.742C45.9267 7.53933 46.3253 8.22933 46.54 8.812C46.6933 9.24133 46.8007 9.70133 46.862 10.192C46.9233 10.6827 46.954 11.1733 46.954 11.664C46.954 13.412 46.632 15.114 45.988 16.77C45.3747 18.3953 44.562 19.898 43.55 21.278C43.1207 21.83 42.7067 22.382 42.308 22.934C41.94 23.4553 41.5873 24.0227 41.25 24.636C41.25 24.636 41.342 24.6667 41.526 24.728C42.0167 24.8813 42.4 25.096 42.676 25.372C42.952 25.648 43.09 26.062 43.09 26.614C43.09 26.798 43.0287 26.8287 42.906 26.706L42.768 26.798L42.722 26.752C42.3847 26.4147 42.0627 26.1693 41.756 26.016C41.4493 25.8627 41.0507 25.7553 40.56 25.694C39.7627 27.0127 38.8887 28.178 37.938 29.19C37.018 30.202 36.006 31.2447 34.902 32.318H34.856C34.6413 32.502 34.2887 32.8087 33.798 33.238C33.338 33.6367 32.878 34.0047 32.418 34.342C31.9887 34.6793 31.682 34.8327 31.498 34.802V34.894C31.498 34.9247 31.5133 34.9553 31.544 34.986V35.078C31.4827 35.1087 31.2833 35.262 30.946 35.538C30.6087 35.814 30.2713 36.09 29.934 36.366C29.6273 36.6113 29.428 36.734 29.336 36.734L29.198 37.148L27.542 38.068L27.45 37.93H27.404L26.438 38.39V38.482C26.4993 38.5433 26.5607 38.574 26.622 38.574C26.6833 38.6353 26.714 38.6813 26.714 38.712V38.758C26.6833 38.7887 26.668 38.8193 26.668 38.85L25.886 38.988V39.034L25.288 39.54L25.242 39.724L24.552 39.31L24.46 40.138L23.494 40.276L23.448 40.46C23.2027 40.5213 22.9573 40.5827 22.712 40.644C22.4973 40.736 22.298 40.8587 22.114 41.012H21.976C21.884 41.012 21.792 41.012 21.7 41.012C21.608 41.012 21.516 41.0273 21.424 41.058C21.332 41.0887 21.24 41.104 21.148 41.104C21.056 41.104 20.964 41.1193 20.872 41.15L20.826 41.058L20.78 41.104L20.09 41.058L19.906 41.288L19.078 41.242H19.124L18.572 41.196C18.296 41.1653 18.066 40.9813 17.882 40.644C17.698 40.3373 17.56 39.9693 17.468 39.54C17.376 39.1107 17.33 38.758 17.33 38.482C17.33 38.2367 17.3453 38.068 17.376 37.976C17.376 37.9147 17.468 37.7307 17.652 37.424C17.8667 37.1173 18.0813 36.8107 18.296 36.504C18.5107 36.1667 18.6333 35.9827 18.664 35.952C18.7867 35.8293 18.9093 35.722 19.032 35.63C19.1547 35.538 19.2773 35.446 19.4 35.354C19.6453 35.2007 19.8753 35.0167 20.09 34.802C20.3967 34.5567 20.7033 34.296 21.01 34.02C21.3167 33.744 21.6233 33.468 21.93 33.192C22.482 32.6707 23.1107 32.18 23.816 31.72L25.15 30.846V31.076C25.15 31.1987 25.1807 31.26 25.242 31.26C25.3033 31.26 25.38 31.1527 25.472 30.938C25.564 30.7233 25.61 30.5853 25.61 30.524L25.978 30.34V30.294L27.542 29.282C27.7873 29.1287 28.0327 28.9907 28.278 28.868C28.554 28.7147 28.83 28.592 29.106 28.5C29.106 28.408 29.1673 28.3467 29.29 28.316C29.3513 28.2853 29.4127 28.2393 29.474 28.178C29.5353 28.178 29.6733 28.1013 29.888 27.948C30.1027 27.764 30.3327 27.58 30.578 27.396C30.8233 27.212 30.992 27.1047 31.084 27.074C31.8507 26.6447 32.6787 26.1693 33.568 25.648C34.488 25.096 35.3773 24.6207 36.236 24.222C37.1253 23.7927 37.9073 23.532 38.582 23.44C38.6433 23.0413 38.858 22.5047 39.226 21.83C39.594 21.1553 39.8853 20.6033 40.1 20.174C40.1307 20.1127 40.1613 20.0207 40.192 19.898C40.2533 19.7753 40.33 19.6527 40.422 19.53C40.5753 19.2233 40.652 19.07 40.652 19.07L40.56 18.748C40.5907 18.7173 40.6367 18.6407 40.698 18.518C40.7287 18.4873 40.744 18.426 40.744 18.334C40.744 18.2727 40.7287 18.242 40.698 18.242C40.6367 18.242 40.606 18.1653 40.606 18.012C40.606 17.644 40.6827 17.2607 40.836 16.862H40.928C41.3267 16.31 41.618 15.6353 41.802 14.838C41.9247 14.1633 42.2313 13.5347 42.722 12.952L42.538 12.584C42.5687 12.5533 42.63 12.4307 42.722 12.216C42.814 12.0013 42.906 11.7867 42.998 11.572C43.1207 11.3573 43.1973 11.25 43.228 11.25C43.2893 11.0353 43.3353 10.6827 43.366 10.192C43.3967 9.70133 43.412 9.318 43.412 9.042C43.412 7.32467 42.86 6.12866 41.756 5.454C40.652 4.74866 39.272 4.396 37.616 4.396C36.2973 4.396 34.9787 4.534 33.66 4.81C32.372 5.086 31.0993 5.43866 29.842 5.868C29.75 6.02133 29.4893 6.31266 29.06 6.742C28.6613 7.14066 28.2013 7.58533 27.68 8.076C27.1587 8.56667 26.668 9.02667 26.208 9.456C25.7787 9.85467 25.4873 10.1307 25.334 10.284C25.3953 10.2533 25.472 10.238 25.564 10.238C25.656 10.238 25.7327 10.238 25.794 10.238H26.254C27.174 10.238 28.0327 10.4987 28.83 11.02C29.0447 11.02 29.1213 11.0967 29.06 11.25C29.1213 11.2807 29.1367 11.3573 29.106 11.48L29.152 11.572C29.152 11.664 29.106 11.7867 29.014 11.94C28.9527 12.0933 28.8607 12.17 28.738 12.17C28.5847 12.17 28.4927 12.1087 28.462 11.986H28.416L28.324 12.078C28.2013 12.078 27.9713 12.1547 27.634 12.308C27.2967 12.4307 27.082 12.492 26.99 12.492H26.76C26.208 12.492 25.6253 12.7833 25.012 13.366C24.4293 13.9487 23.9693 14.4547 23.632 14.884C22.5893 16.1413 21.608 17.3987 20.688 18.656C19.7987 19.9133 18.9553 21.2473 18.158 22.658C17.8207 23.302 17.468 23.946 17.1 24.59C16.732 25.2033 16.3487 25.8167 15.95 26.43C15.1527 27.718 14.5087 29.0367 14.018 30.386C13.7727 31.122 13.4813 31.9193 13.144 32.778C12.8067 33.6367 12.5153 34.4647 12.27 35.262C12.0553 36.0593 11.948 36.7647 11.948 37.378C11.948 37.7153 11.994 38.0373 12.086 38.344C12.178 38.6507 12.3467 38.9113 12.592 39.126C12.6533 39.1873 12.7147 39.2487 12.776 39.31C12.868 39.3713 12.9753 39.4327 13.098 39.494C13.3127 39.5247 13.4507 39.6473 13.512 39.862C13.6653 39.77 13.8647 39.6627 14.11 39.54C14.386 39.3867 14.6313 39.31 14.846 39.31C14.9993 39.31 15.076 39.3867 15.076 39.54C15.076 39.7547 14.9533 39.9847 14.708 40.23C14.4933 40.4753 14.3093 40.6593 14.156 40.782C13.8493 41.0273 13.5427 41.15 13.236 41.15C12.96 41.1807 12.6533 41.196 12.316 41.196C12.2547 41.2573 12.1473 41.288 11.994 41.288ZM5.278 19.07H5.416L5.508 18.978C5.66133 18.9473 5.84533 18.8553 6.06 18.702C6.39733 18.4873 6.75 18.288 7.118 18.104C7.486 17.8893 7.86933 17.7053 8.268 17.552C9.06533 17.2147 9.80133 16.8467 10.476 16.448C12.04 15.4667 13.6193 14.516 15.214 13.596C16.8087 12.676 18.48 11.9247 20.228 11.342C20.4427 11.0967 20.642 10.8513 20.826 10.606C21.0407 10.3607 21.2553 10.1307 21.47 9.916C21.6847 9.67066 21.884 9.44066 22.068 9.226C22.2827 8.98066 22.4973 8.73533 22.712 8.49C22.1293 8.674 21.562 8.88867 21.01 9.134C20.4887 9.34867 19.952 9.57867 19.4 9.824L18.158 10.33L17.882 10.468L17.698 10.514H17.652C17.4067 10.514 17.0847 10.652 16.686 10.928C16.318 11.204 15.95 11.48 15.582 11.756C15.2447 12.032 14.984 12.17 14.8 12.17C14.8 12.1393 14.8 12.1087 14.8 12.078C14.8307 12.0473 14.8613 12.0013 14.892 11.94C14.708 12.032 14.3247 12.2313 13.742 12.538C13.19 12.814 12.5767 13.1207 11.902 13.458C11.258 13.7953 10.6753 14.1173 10.154 14.424C9.878 14.5773 9.49467 14.792 9.004 15.068C8.51333 15.344 8.00733 15.6353 7.486 15.942C6.96467 16.218 6.52 16.4787 6.152 16.724C5.81467 16.9693 5.646 17.138 5.646 17.23L5.692 17.276C5.692 17.3067 5.554 17.4447 5.278 17.69C5.002 17.9047 4.71067 18.1193 4.404 18.334C4.128 18.5487 3.95933 18.6713 3.898 18.702C3.92867 18.702 4.05133 18.7327 4.266 18.794C4.51133 18.8247 4.74133 18.8707 4.956 18.932C5.17067 18.9627 5.278 19.0087 5.278 19.07ZM27.726 11.066C27.8793 11.066 28.002 11.02 28.094 10.928C28.0633 10.928 27.9713 10.882 27.818 10.79C27.634 10.698 27.5113 10.652 27.45 10.652V10.882C27.4193 10.882 27.404 10.8973 27.404 10.928C27.404 10.9587 27.45 10.9893 27.542 11.02C27.634 11.0507 27.6953 11.066 27.726 11.066ZM11.304 37.746C11.304 38.7273 11.3807 39.0033 11.534 38.574C11.6873 38.114 11.718 37.3167 11.626 36.182C11.5953 35.4767 11.7027 34.71 11.948 33.882C12.1933 33.054 12.4387 32.318 12.684 31.674C12.8373 31.2753 12.9907 30.8767 13.144 30.478C13.2973 30.0793 13.4353 29.6807 13.558 29.282C13.7113 28.8833 13.8647 28.4847 14.018 28.086C14.1713 27.6873 14.3247 27.2887 14.478 26.89C15.2753 25.2033 16.226 23.5473 17.33 21.922C18.4647 20.2967 19.584 18.748 20.688 17.276C21.0253 16.8467 21.3627 16.402 21.7 15.942C22.0373 15.482 22.3747 15.0373 22.712 14.608C23.0493 14.1787 23.402 13.7647 23.77 13.366C24.138 12.9673 24.5213 12.5687 24.92 12.17L24.552 12.124C24.4907 12.1547 24.3527 12.17 24.138 12.17C24.0767 12.17 24 12.17 23.908 12.17C23.8467 12.1393 23.77 12.1087 23.678 12.078C23.494 12.1393 23.4327 12.2007 23.494 12.262C23.494 12.3233 23.3867 12.3693 23.172 12.4C22.8347 12.8293 22.4973 13.2587 22.16 13.688C21.8227 14.1173 21.4853 14.5467 21.148 14.976C20.4733 15.8347 19.8293 16.7547 19.216 17.736C19.124 17.8893 18.8633 18.2573 18.434 18.84C18.0353 19.392 17.5907 20.0053 17.1 20.68C16.6093 21.3547 16.18 21.9833 15.812 22.566C15.444 23.118 15.26 23.4707 15.26 23.624C15.26 23.6547 15.1527 23.854 14.938 24.222C14.754 24.59 14.57 24.958 14.386 25.326C14.202 25.694 14.0947 25.878 14.064 25.878C14.0027 26.0927 13.9107 26.3227 13.788 26.568C13.696 26.7827 13.5887 27.0433 13.466 27.35C13.19 27.9327 13.052 28.4233 13.052 28.822L12.592 29.604C12.592 30.1253 12.5307 30.57 12.408 30.938C12.3467 31.1527 12.2853 31.3673 12.224 31.582C12.1627 31.766 12.1013 31.9653 12.04 32.18C12.0093 32.3027 11.9633 32.456 11.902 32.64C11.8407 32.7933 11.7793 32.9773 11.718 33.192C11.534 33.5907 11.442 33.9433 11.442 34.25C11.442 34.4647 11.442 34.6947 11.442 34.94C11.442 35.1547 11.4267 35.3693 11.396 35.584C11.3653 35.7987 11.3347 36.0287 11.304 36.274C11.304 36.4887 11.304 36.7033 11.304 36.918V37.102C11.2733 37.1633 11.258 37.24 11.258 37.332C11.258 37.424 11.2733 37.4853 11.304 37.516V37.746ZM42.216 15.068C42.3387 15.068 42.446 14.9147 42.538 14.608C42.63 14.3013 42.676 14.102 42.676 14.01V13.504L42.354 14.102C42.262 14.2553 42.1853 14.4087 42.124 14.562C42.0933 14.7153 42.078 14.8073 42.078 14.838C42.078 14.8993 42.124 14.9607 42.216 15.022V15.068ZM41.112 18.15C41.112 18.1193 41.1273 18.104 41.158 18.104C41.1887 18.104 41.2193 18.0887 41.25 18.058C41.2807 17.9047 41.342 17.7207 41.434 17.506C41.526 17.2913 41.6487 17.1993 41.802 17.23C41.8327 17.1993 41.848 17.092 41.848 16.908C41.848 16.8467 41.8327 16.7547 41.802 16.632C41.7713 16.5093 41.71 16.4327 41.618 16.402V16.356C41.4953 16.356 41.3573 16.586 41.204 17.046C41.0507 17.506 40.974 17.7973 40.974 17.92C40.974 18.0733 41.02 18.15 41.112 18.15ZM20.044 38.758C20.2893 38.758 20.5193 38.712 20.734 38.62C20.8873 38.4667 21.01 38.3287 21.102 38.206C21.2247 38.0833 21.3473 37.9453 21.47 37.792C21.47 37.792 21.47 37.8073 21.47 37.838C21.47 37.838 21.4853 37.8533 21.516 37.884C21.516 37.9453 21.4853 38.0067 21.424 38.068L22.022 37.93L21.93 37.608C21.9913 37.6387 22.0987 37.6847 22.252 37.746C22.436 37.7767 22.5587 37.792 22.62 37.792C22.62 37.792 22.712 37.7613 22.896 37.7V37.654L23.08 37.332L23.954 37.148C24.0153 37.0867 24.0153 37.056 23.954 37.056C23.8927 37.056 23.8773 37.0407 23.908 37.01L24.966 36.228H25.058L25.012 36.044H25.196C25.2267 36.0747 25.288 36.09 25.38 36.09H25.426V36.044L25.932 35.63V35.584L26.07 35.676V35.492C26.2233 35.4307 26.3613 35.3693 26.484 35.308C26.6067 35.216 26.6373 35.078 26.576 34.894L27.818 33.836C28.3087 33.4373 28.784 33.238 29.244 33.238C29.336 33.238 29.3973 33.192 29.428 33.1C29.4587 33.0387 29.5047 32.9773 29.566 32.916C29.566 32.7013 29.7347 32.4253 30.072 32.088L30.808 31.352V31.26L32.832 29.374L32.786 29.466L32.832 29.512V29.42L33.062 29.098L33.108 29.144L33.844 28.592V28.132C34.0587 27.8253 34.3653 27.58 34.764 27.396C35.1933 27.1813 35.592 26.982 35.96 26.798C36.328 26.614 36.512 26.3687 36.512 26.062H36.42C36.144 26.062 35.7453 26.1847 35.224 26.43C34.7333 26.6447 34.3653 26.8287 34.12 26.982C33.5987 27.2273 33.0927 27.488 32.602 27.764C32.1113 28.0093 31.6207 28.2853 31.13 28.592C30.8233 28.776 30.348 29.0827 29.704 29.512C29.0907 29.9107 28.4313 30.3247 27.726 30.754C27.0513 31.1833 26.4227 31.5513 25.84 31.858C25.288 32.134 24.9047 32.2567 24.69 32.226L24.736 32.318L24.598 32.502L24.506 32.64C24.4753 32.64 24.414 32.594 24.322 32.502V32.594C24.0767 32.8087 23.8313 33.0233 23.586 33.238C23.3407 33.422 23.0953 33.6213 22.85 33.836L21.332 35.078L21.424 35.4L20.918 35.584C20.918 35.6453 20.8873 35.7373 20.826 35.86C20.7953 35.9213 20.7493 35.9827 20.688 36.044C20.6573 36.0747 20.6267 36.1207 20.596 36.182C20.2893 36.3353 20.0287 36.5347 19.814 36.78C19.5993 36.9947 19.4 37.24 19.216 37.516V37.608C19.216 37.9147 19.262 38.1907 19.354 38.436C19.4767 38.6507 19.7067 38.758 20.044 38.758ZM57.3263 41.058C56.8663 41.058 56.4676 40.9507 56.1303 40.736C55.8236 40.5213 55.5016 40.2453 55.1643 39.908L55.2563 39.816C55.2563 39.7853 55.2256 39.7393 55.1643 39.678C54.9496 39.402 54.7963 39.1873 54.7043 39.034C54.6429 38.8807 54.5816 38.7273 54.5203 38.574C54.4896 38.4207 54.4589 38.2673 54.4283 38.114C54.3976 37.9607 54.3363 37.746 54.2443 37.47C54.2136 37.3473 54.2136 37.2707 54.2443 37.24V36.32C54.2443 36.1667 54.2443 36.0287 54.2443 35.906C54.2443 35.7527 54.2289 35.5993 54.1983 35.446C54.1676 35.3233 54.1369 35.216 54.1063 35.124C54.1063 35.0013 54.1063 34.9093 54.1063 34.848C54.1063 34.8173 54.1369 34.71 54.1983 34.526C54.1983 34.434 54.2136 34.3727 54.2443 34.342C54.1829 34.2807 54.1523 34.2347 54.1523 34.204C54.1523 34.1733 54.1676 34.1427 54.1983 34.112L54.2443 34.066C54.2443 34.066 54.2596 34.0507 54.2903 34.02C54.2903 33.9893 54.3056 33.9587 54.3363 33.928C54.3056 33.928 54.2903 33.9127 54.2903 33.882C54.2903 33.8207 54.3056 33.79 54.3363 33.79C54.2749 33.4833 54.2903 33.2533 54.3823 33.1C54.4743 32.916 54.4743 32.6553 54.3823 32.318H54.6123V31.996L54.6583 31.95L54.4283 31.628L54.7503 31.582V31.536C54.7503 31.5053 54.7656 31.4747 54.7963 31.444C55.1336 30.6467 55.4096 29.8647 55.6243 29.098L55.3483 29.144V28.822H55.4403C55.5936 28.5767 55.7316 28.3007 55.8543 27.994C55.9156 27.8407 55.9769 27.718 56.0383 27.626C56.0996 27.534 56.1456 27.4267 56.1763 27.304L56.1303 27.35C55.9156 27.5647 55.7929 27.7947 55.7623 28.04C55.7316 28.1933 55.6703 28.3313 55.5783 28.454C55.5169 28.5767 55.4249 28.6993 55.3023 28.822C55.1796 28.9447 55.0723 29.0213 54.9803 29.052C54.8576 29.144 54.7656 29.2667 54.7043 29.42C54.4283 30.0333 54.0909 30.616 53.6923 31.168C53.3243 31.72 52.9563 32.2567 52.5883 32.778C52.5269 32.87 52.4349 32.9773 52.3123 33.1C52.1896 33.2227 52.0976 33.3607 52.0363 33.514C51.9443 33.6673 51.8676 33.8207 51.8063 33.974L51.5303 34.434C51.4689 34.5567 51.3923 34.664 51.3003 34.756C51.2083 34.848 51.1009 34.9553 50.9783 35.078L50.3343 35.676C49.5676 36.5653 48.7703 37.4547 47.9423 38.344C47.1449 39.2027 46.2096 39.8927 45.1363 40.414C45.0443 40.4447 44.9676 40.46 44.9063 40.46C44.8449 40.4907 44.7836 40.506 44.7223 40.506C44.3543 40.506 44.0476 40.3373 43.8023 40C43.5876 39.6627 43.4803 39.3253 43.4803 38.988C43.4803 38.8347 43.5109 38.666 43.5723 38.482L43.7563 38.022C43.8176 37.838 43.8483 37.6693 43.8483 37.516C43.8483 37.3627 43.8789 37.194 43.9403 37.01C44.0323 36.6727 44.1396 36.366 44.2623 36.09C44.3849 35.7833 44.5229 35.4613 44.6763 35.124C44.6763 35.124 44.7069 34.986 44.7683 34.71C44.7683 34.4953 44.7836 34.3573 44.8143 34.296C44.6609 34.2347 44.5843 34.1887 44.5843 34.158C44.5843 34.1273 44.5996 34.112 44.6303 34.112V34.066C44.7223 33.882 44.8296 33.6673 44.9523 33.422C45.1056 33.146 45.3049 32.9927 45.5503 32.962C45.7036 32.6247 45.8416 32.3027 45.9643 31.996C46.1176 31.6893 46.2709 31.3827 46.4243 31.076C46.7309 30.4933 46.9609 29.834 47.1143 29.098L47.2523 28.914H47.1603L47.0223 28.73L47.2063 28.454L46.9303 28.316L47.2063 28.178H47.0223V28.086C46.9916 28.0553 46.9763 28.0093 46.9763 27.948C46.9763 27.8867 46.9916 27.8407 47.0223 27.81C47.1449 27.5953 47.2216 27.3807 47.2523 27.166C47.3136 26.9207 47.4056 26.7367 47.5283 26.614H47.4823L47.4363 26.66H47.3443C47.2523 26.66 47.2063 26.6293 47.2063 26.568V26.522C47.2063 26.1847 47.2983 25.8627 47.4823 25.556C47.5129 25.4333 47.5436 25.326 47.5743 25.234C47.6049 25.142 47.6356 25.0347 47.6663 24.912C47.6969 24.82 47.7123 24.728 47.7123 24.636C47.7429 24.544 47.7583 24.452 47.7583 24.36C47.7583 24.2373 47.7429 24.1453 47.7123 24.084C47.6509 23.9613 47.6203 23.854 47.6203 23.762C47.6203 23.6393 47.6663 23.532 47.7583 23.44C47.8809 23.348 47.9883 23.2713 48.0803 23.21V23.164C48.0189 23.1333 47.8963 23.0873 47.7123 23.026C47.5589 22.934 47.4669 22.888 47.4363 22.888L47.4823 22.704C47.4209 22.7653 47.3749 22.796 47.3443 22.796C47.3749 22.796 47.3749 22.8113 47.3443 22.842H47.2523C47.1603 22.8113 46.9916 22.7653 46.7463 22.704C46.4703 22.6427 46.3323 22.5507 46.3323 22.428C46.3323 22.3667 46.4089 22.3053 46.5623 22.244C46.7156 22.152 46.8229 22.106 46.8843 22.106C47.3136 22.198 47.8349 22.3207 48.4483 22.474C49.0923 22.5967 49.6903 22.75 50.2423 22.934C50.8249 23.118 51.2236 23.3633 51.4383 23.67C51.4996 23.762 51.5303 23.8693 51.5303 23.992C51.5609 24.084 51.5763 24.176 51.5763 24.268C51.5763 24.544 51.4996 24.8507 51.3463 25.188C51.2236 25.5253 51.1009 25.832 50.9783 26.108C50.8863 26.292 50.8403 26.4147 50.8403 26.476C50.8403 26.476 50.8096 26.568 50.7483 26.752C50.5949 26.9053 50.4876 27.028 50.4263 27.12C50.3036 27.2427 50.1656 27.3347 50.0123 27.396L50.0583 27.534L50.1043 27.58C50.1656 27.6413 50.1963 27.6873 50.1963 27.718C50.2576 27.8407 50.2883 27.9633 50.2883 28.086C50.2883 28.1473 50.2729 28.224 50.2423 28.316C50.2116 28.408 50.1349 28.4693 50.0123 28.5L49.9203 28.592H49.9663C49.9049 28.7147 49.8743 28.822 49.8743 28.914V29.052C49.8743 29.1133 49.8589 29.19 49.8283 29.282C49.7976 29.374 49.7363 29.4353 49.6443 29.466C49.5829 29.6193 49.4756 29.8647 49.3223 30.202C49.1996 30.5393 49.0769 30.7693 48.9543 30.892L48.8163 31.168L48.8623 31.306L48.6783 31.444C48.6476 31.6587 48.5249 31.8733 48.3103 32.088C48.0956 32.2413 48.0189 32.456 48.0803 32.732H47.9883C48.0189 32.7627 48.0343 32.7933 48.0343 32.824C48.0343 32.8853 48.0036 32.916 47.9423 32.916C47.9116 33.008 47.8503 33.1153 47.7583 33.238C47.6663 33.33 47.5283 33.4067 47.3443 33.468C47.2523 33.8053 47.1143 34.2653 46.9303 34.848C46.7463 35.4 46.5776 35.906 46.4243 36.366C46.2709 36.826 46.1789 37.102 46.1483 37.194C46.1789 37.2247 46.2403 37.24 46.3323 37.24C46.4549 37.24 46.6389 37.1787 46.8843 37.056C47.1296 36.9027 47.2216 36.7187 47.1603 36.504C47.2829 36.504 47.3903 36.4273 47.4823 36.274C47.6049 36.1513 47.7123 36.0747 47.8043 36.044C48.1723 35.7373 48.5249 35.4307 48.8623 35.124C49.1996 34.7867 49.5216 34.434 49.8283 34.066C50.1349 33.698 50.4416 33.33 50.7483 32.962C51.0549 32.594 51.3616 32.2413 51.6683 31.904C51.6989 31.8733 51.8829 31.6433 52.2203 31.214C52.5883 30.7847 53.0176 30.2633 53.5083 29.65C53.9989 29.0367 54.4896 28.408 54.9803 27.764C55.4709 27.12 55.8696 26.568 56.1763 26.108C56.4829 25.648 56.6209 25.3567 56.5903 25.234H56.9583L57.0043 25.28L57.0963 25.188L56.8663 25.234V24.958H56.9583C57.0196 24.866 57.0809 24.774 57.1423 24.682C57.2036 24.59 57.2649 24.5133 57.3263 24.452C57.4183 24.36 57.4949 24.176 57.5563 23.9C57.5869 23.7773 57.6176 23.67 57.6483 23.578C57.6789 23.4553 57.7096 23.3327 57.7403 23.21C57.8016 22.9953 57.9703 22.8727 58.2463 22.842L58.2923 22.796C58.5683 22.796 58.9823 22.842 59.5343 22.934C60.0863 23.026 60.5769 23.164 61.0063 23.348C61.4663 23.532 61.6963 23.7773 61.6963 24.084C61.6963 24.3293 61.5889 24.636 61.3743 25.004C61.1903 25.372 60.9756 25.7247 60.7303 26.062C60.6076 26.2153 60.5003 26.384 60.4083 26.568C60.3163 26.752 60.2089 26.9207 60.0863 27.074C59.8716 27.4113 59.6876 27.764 59.5343 28.132H59.3963V28.224C59.3349 28.2547 59.2429 28.3313 59.1203 28.454C59.0283 28.546 58.9516 28.6227 58.8903 28.684H59.0283C59.0283 28.8373 59.0129 28.96 58.9823 29.052L58.9363 29.42L58.6603 29.88H58.4303C58.4303 30.0027 58.3536 30.064 58.2003 30.064C58.1083 30.064 58.0623 30.0333 58.0623 29.972C58.0316 29.972 58.0163 29.926 58.0163 29.834C58.0163 29.7727 58.0469 29.742 58.1083 29.742L58.3383 29.282L58.2463 29.19C58.1543 29.4047 58.0776 29.5887 58.0163 29.742C57.9856 29.8953 58.0009 30.0947 58.0623 30.34H58.0163L58.0623 30.386L57.8323 30.478L57.7863 30.8L57.6483 31.214C57.5563 31.5207 57.4183 31.7047 57.2343 31.766L57.3263 31.95L57.1883 32.502L57.0503 32.686H57.0963L56.4983 33.606C56.5289 33.6367 56.5443 33.7133 56.5443 33.836C56.5443 34.0813 56.4829 34.3113 56.3603 34.526C56.2376 34.7407 56.1456 34.986 56.0843 35.262L56.1303 35.4L56.0383 35.492C56.0689 35.492 56.0843 35.5227 56.0843 35.584L56.4983 35.722C56.3449 35.722 56.2376 35.7067 56.1763 35.676V35.998C56.1763 36.1207 56.1763 36.2433 56.1763 36.366C56.1763 36.458 56.1609 36.5653 56.1303 36.688C56.0996 36.8107 56.0689 36.918 56.0383 37.01C56.0383 37.102 56.0383 37.2093 56.0383 37.332C56.0383 37.5773 56.0843 37.792 56.1763 37.976C56.2376 38.068 56.2683 38.1753 56.2683 38.298C56.2989 38.39 56.3296 38.4973 56.3603 38.62C56.3909 38.6813 56.4063 38.7887 56.4063 38.942C56.4063 39.0647 56.4063 39.2027 56.4063 39.356C56.4369 39.6013 56.6363 39.816 57.0043 40C57.4029 40.184 57.7249 40.276 57.9703 40.276C58.2769 40.276 58.5223 40.23 58.7063 40.138C58.8903 40.046 59.1049 39.9233 59.3503 39.77L59.3043 39.816H59.4883V39.862C59.3349 40.1993 59.0129 40.4753 58.5223 40.69C58.0316 40.9353 57.6329 41.058 57.3263 41.058ZM47.4823 32.916H47.5283C47.5896 32.7933 47.6509 32.7167 47.7123 32.686L47.6663 32.502C47.6049 32.594 47.5436 32.732 47.4823 32.916ZM64.7344 41.15C64.1211 41.15 63.5078 41.012 62.8944 40.736C62.2811 40.46 61.8058 40.0307 61.4684 39.448C61.1004 38.7733 60.7784 38.1293 60.5024 37.516C60.2264 36.872 60.0884 36.1513 60.0884 35.354C60.0884 34.8633 60.1191 34.388 60.1804 33.928C60.2724 33.468 60.3644 33.008 60.4564 32.548C60.5178 32.3027 60.6404 31.996 60.8244 31.628C61.0391 31.2293 61.2231 30.9073 61.3764 30.662C61.4991 30.5087 61.5604 30.34 61.5604 30.156H61.9284C61.8364 30.6467 61.7291 31.1067 61.6064 31.536C61.5144 31.9347 61.3918 32.3487 61.2384 32.778C61.1158 33.2073 61.0084 33.6367 60.9164 34.066C60.8551 34.4647 60.8244 34.8787 60.8244 35.308C60.8244 35.492 60.8398 35.722 60.8704 35.998C60.9011 36.274 60.9624 36.4887 61.0544 36.642C61.2078 36.8873 61.3611 37.1327 61.5144 37.378C61.6984 37.6233 61.8824 37.8687 62.0664 38.114C62.3731 38.6047 62.8331 38.85 63.4464 38.85C63.5384 38.85 63.7071 38.8347 63.9524 38.804C64.1978 38.7733 64.3358 38.6813 64.3664 38.528H64.6884C64.9338 38.528 65.1638 38.4667 65.3784 38.344C65.6238 38.2213 65.8538 38.0987 66.0684 37.976C67.8164 36.9947 69.3498 35.7833 70.6684 34.342C71.9871 32.9007 73.1524 31.3213 74.1644 29.604C75.1764 27.856 76.0964 26.0773 76.9244 24.268C77.0471 23.9613 77.1698 23.6393 77.2924 23.302C77.4458 22.9647 77.5991 22.6273 77.7524 22.29C78.0591 21.646 78.2124 20.956 78.2124 20.22C78.2124 20.0667 78.1971 19.898 78.1664 19.714C78.1358 19.4993 78.0591 19.346 77.9364 19.254C77.9058 19.2233 77.8291 19.208 77.7064 19.208C77.4304 19.208 77.1084 19.346 76.7404 19.622C76.4031 19.898 76.0504 20.22 75.6824 20.588C75.4984 20.772 75.2071 21.048 74.8084 21.416C74.4404 21.7533 74.1184 21.9527 73.8424 22.014V22.106C73.5664 22.5967 73.2291 23.026 72.8304 23.394C72.6158 23.6087 72.4011 23.8233 72.1864 24.038C72.0024 24.222 71.8338 24.4213 71.6804 24.636C70.8218 25.6787 69.9018 26.9207 68.9204 28.362C67.9698 29.7727 67.2031 31.076 66.6204 32.272C66.4058 32.6707 66.2678 33.0693 66.2064 33.468C66.1144 33.8973 65.8691 34.2653 65.4704 34.572L65.0564 34.618L63.4924 33.422L63.1704 32.456L63.3544 32.364C63.3238 32.272 63.3084 32.1033 63.3084 31.858V31.352C63.3084 30.5547 63.4464 29.8187 63.7224 29.144C64.0291 28.4693 64.3511 27.7793 64.6884 27.074C65.2098 25.8473 65.7618 24.6513 66.3444 23.486C66.9578 22.29 67.6631 21.1553 68.4604 20.082C68.6138 19.898 68.7518 19.7293 68.8744 19.576C69.0278 19.392 69.1504 19.208 69.2424 19.024C69.3038 18.9013 69.3651 18.794 69.4264 18.702C69.4878 18.5793 69.5338 18.472 69.5644 18.38C69.5951 18.2267 69.7178 18.0427 69.9324 17.828C70.0244 17.7053 70.1164 17.598 70.2084 17.506C70.3004 17.414 70.3924 17.322 70.4844 17.23C70.6378 17.0767 70.7144 16.8467 70.7144 16.54C71.5731 15.5587 72.4471 14.516 73.3364 13.412C74.2258 12.308 75.0691 11.25 75.8664 10.238C76.1731 9.83933 76.4798 9.47133 76.7864 9.134C77.0931 8.766 77.4151 8.42867 77.7524 8.122C78.0898 7.81533 78.4118 7.49333 78.7184 7.156C79.0251 6.81867 79.3164 6.466 79.5924 6.098C80.3284 5.14733 81.1258 4.258 81.9844 3.43C82.8431 2.57133 83.6558 1.71267 84.4224 0.853999C84.7598 0.884666 85.1738 1.00733 85.6644 1.222C86.1858 1.43667 86.6304 1.71267 86.9984 2.05C87.3971 2.35666 87.5964 2.70933 87.5964 3.108C87.5964 3.476 87.3664 3.844 86.9064 4.212C86.4771 4.54933 86.0018 4.88667 85.4804 5.224C85.2351 5.37733 84.9898 5.53066 84.7444 5.684C84.4991 5.83733 84.2844 5.99066 84.1004 6.144C83.6711 6.48133 83.4564 6.788 83.4564 7.064H82.9504V6.926L82.8124 7.064L83.0424 7.248C82.4598 7.64666 81.9231 8.13733 81.4324 8.72C80.9418 9.272 80.5278 9.80866 80.1904 10.33C80.0371 10.422 79.9451 10.5293 79.9144 10.652C79.8838 10.7133 79.8531 10.79 79.8224 10.882C79.7918 10.9433 79.7611 11.0047 79.7304 11.066C79.6691 11.1887 79.5618 11.3113 79.4084 11.434C79.2858 11.526 79.1018 11.6027 78.8564 11.664C78.9791 11.3267 79.0864 11.112 79.1784 11.02C79.2091 10.9893 79.2551 10.9127 79.3164 10.79L78.6264 11.526C78.3198 11.8633 77.9978 12.216 77.6604 12.584C77.3538 12.9213 77.0318 13.274 76.6944 13.642C76.3878 13.9793 76.0811 14.3013 75.7744 14.608C75.4984 14.9147 75.2378 15.206 74.9924 15.482C74.7164 15.7887 74.4864 16.0187 74.3024 16.172C74.1184 16.3253 73.9958 16.4327 73.9344 16.494C73.8424 16.862 73.6584 17.1533 73.3824 17.368C73.2291 17.4907 73.0911 17.6287 72.9684 17.782C72.8458 17.9047 72.7231 18.0273 72.6004 18.15C72.0791 18.794 71.5884 19.4227 71.1284 20.036C70.8831 20.3427 70.6224 20.6647 70.3464 21.002C70.1011 21.3393 69.8558 21.6767 69.6104 22.014C69.5798 21.9833 69.5491 21.968 69.5184 21.968C69.4878 21.968 69.4571 21.9527 69.4264 21.922C69.3344 21.922 69.2731 21.9067 69.2424 21.876C68.9358 22.1827 68.7058 22.566 68.5524 23.026C68.3991 23.486 68.1078 23.7467 67.6784 23.808C67.6784 24.0533 67.6171 24.314 67.4944 24.59L67.7704 24.498C67.7091 24.774 67.5864 25.0347 67.4024 25.28C67.2491 25.5253 67.0498 25.6787 66.8044 25.74C66.8044 25.9547 66.7738 26.154 66.7124 26.338L66.5744 26.66L66.3444 27.258L66.2064 27.672L66.0684 28.132C65.9458 28.5 65.8231 28.868 65.7004 29.236C65.5778 29.604 65.4551 29.972 65.3324 30.34L65.1944 30.938C65.1331 31.1833 65.0718 31.398 65.0104 31.582C64.9491 31.7353 64.8724 31.8887 64.7804 32.042L64.9184 32.502L65.0564 32.18C65.0871 32.0573 65.1178 31.9653 65.1484 31.904C65.2098 31.812 65.2558 31.7353 65.2864 31.674C65.6544 31.03 66.0991 30.2633 66.6204 29.374C67.1418 28.454 67.6784 27.5187 68.2304 26.568C68.8131 25.6173 69.3498 24.7893 69.8404 24.084C70.7298 22.8267 71.6958 21.6767 72.7384 20.634C73.8118 19.5607 74.9464 18.748 76.1424 18.196C76.1731 18.1653 76.2191 18.15 76.2804 18.15C76.2804 18.15 76.2804 18.1347 76.2804 18.104C76.2804 18.0733 76.2958 18.0427 76.3264 18.012L76.6024 18.104C76.7558 17.9507 76.9551 17.874 77.2004 17.874C77.4764 17.8433 77.6911 17.828 77.8444 17.828C78.7338 17.828 79.3318 18.196 79.6384 18.932C79.9758 19.6373 80.1444 20.3733 80.1444 21.14C80.1444 21.7227 80.0831 22.4127 79.9604 23.21C79.8684 23.9767 79.7151 24.6207 79.5004 25.142C79.4698 25.2953 79.4084 25.418 79.3164 25.51C79.2551 25.6327 79.2244 25.8013 79.2244 26.016C79.0404 26.1387 78.8718 26.3533 78.7184 26.66C78.5958 26.9667 78.5344 27.2427 78.5344 27.488C78.4424 27.5187 78.3658 27.5953 78.3044 27.718L78.1664 28.04C78.1358 28.1627 78.0898 28.2853 78.0284 28.408C77.9671 28.5 77.8138 28.546 77.5684 28.546C77.5378 28.8527 77.4611 29.1593 77.3384 29.466C77.2464 29.7727 77.0624 29.88 76.7864 29.788L76.8324 29.834V30.11L76.6024 30.616L76.0504 30.708C75.9278 30.8613 75.7591 31.1067 75.5444 31.444C75.3298 31.7507 75.1918 31.9807 75.1304 32.134C75.2224 32.2567 75.2684 32.3947 75.2684 32.548C75.2684 32.8547 75.1151 33.1613 74.8084 33.468C74.5018 33.7747 74.2718 34.0507 74.1184 34.296C73.9651 34.5413 73.8884 34.7253 73.8884 34.848L73.4744 34.94C73.3824 35.1853 73.2444 35.2927 73.0604 35.262H72.9224C72.6158 36.0287 72.3398 36.4887 72.0944 36.642L71.6344 36.964C71.3584 37.148 71.1438 37.332 70.9904 37.516C70.8371 37.7 70.6838 37.93 70.5304 38.206C70.4691 38.3287 70.3924 38.4513 70.3004 38.574C70.2391 38.6967 70.1624 38.8193 70.0704 38.942C69.7024 39.3407 69.1964 39.7087 68.5524 40.046C67.9391 40.3833 67.2798 40.644 66.5744 40.828C65.8998 41.0427 65.2864 41.15 64.7344 41.15ZM72.0944 18.058L72.4164 17.782L72.3704 17.644L72.0944 18.058ZM71.0364 19.438V19.392L71.1284 19.3L71.0824 19.208V19.162L71.1744 19.07L71.0824 18.978L70.9904 19.346H70.9444L71.0364 19.438ZM70.0704 20.726L70.1164 20.634L70.2084 20.726V20.588C70.2084 20.5573 70.2238 20.5267 70.2544 20.496L70.3464 20.358C70.4078 20.358 70.4384 20.3273 70.4384 20.266L70.3004 20.312V20.22L70.0704 20.588V20.726ZM65.2864 27.948L65.3784 27.902H65.3324L65.4704 27.488L65.4244 27.58C65.3631 27.7947 65.3171 27.9173 65.2864 27.948ZM77.4304 27.856L77.5224 27.626H77.6144V27.58H77.5684L77.5224 27.626H77.4304L77.2924 27.718L77.4304 27.856ZM65.0564 28.592L64.8724 28.5L64.7344 29.42H64.7804C64.7804 29.3587 64.8111 29.2207 64.8724 29.006C64.9338 28.7913 64.9951 28.6533 65.0564 28.592ZM64.7804 29.512V29.466L64.7344 29.42L64.7804 29.512ZM91.2398 40.92C90.9331 40.552 90.6111 40.2607 90.2738 40.046C89.9671 39.862 89.6911 39.6473 89.4458 39.402C89.2311 39.126 89.1238 38.758 89.1238 38.298H89.2158L89.0778 37.608L88.9398 37.746L88.8478 37.884C88.8784 37.7613 88.9091 37.654 88.9398 37.562C88.9704 37.4393 89.0011 37.332 89.0318 37.24C89.0624 37.0867 89.0778 36.9487 89.0778 36.826C89.1084 36.6727 89.1238 36.5193 89.1238 36.366C89.1238 35.9673 89.1544 35.584 89.2158 35.216C89.2771 34.8173 89.3538 34.434 89.4458 34.066C89.5378 33.698 89.6144 33.33 89.6758 32.962C89.7678 32.5633 89.8444 32.1493 89.9058 31.72H89.9978L90.5038 30.524L90.4578 30.294C90.3964 30.4167 90.3504 30.4933 90.3198 30.524C90.2891 30.5853 90.2431 30.6467 90.1818 30.708C89.8444 31.1987 89.4304 31.7967 88.9398 32.502C88.4491 33.1767 87.9584 33.8207 87.4678 34.434C86.9771 35.0167 86.5324 35.4307 86.1338 35.676C85.8884 35.8293 85.7198 35.952 85.6278 36.044C85.5358 36.1053 85.4284 36.2893 85.3058 36.596C84.9991 36.6573 84.6924 36.8567 84.3858 37.194C84.1098 37.5313 83.8338 37.8533 83.5578 38.16C83.2818 38.4667 82.9751 38.6353 82.6378 38.666L82.5918 38.896C82.4078 39.08 82.1624 39.218 81.8558 39.31C81.5491 39.3713 81.2731 39.4173 81.0278 39.448C80.3531 39.2027 79.6938 38.8653 79.0498 38.436C78.4058 38.0067 78.0838 37.4087 78.0838 36.642C78.0838 36.3353 78.1298 36.0747 78.2218 35.86H78.2678V35.63C78.2064 35.538 78.1911 35.4153 78.2218 35.262C78.2524 35.1087 78.2984 35.032 78.3598 35.032L78.4058 35.078C78.4671 34.986 78.4978 34.8327 78.4978 34.618C78.5284 34.4033 78.5438 34.2653 78.5438 34.204L78.6358 34.112C78.6358 33.8973 78.7431 33.6673 78.9578 33.422C79.1724 33.1767 79.3718 32.9467 79.5558 32.732C79.7704 32.5173 79.8778 32.364 79.8778 32.272C79.9084 32.2413 79.9238 32.1953 79.9238 32.134C79.9238 31.9807 79.9084 31.858 79.8778 31.766C79.8164 31.6433 79.8011 31.536 79.8318 31.444V31.26H80.0158L80.1538 31.03V30.938C80.0618 30.8767 80.0158 30.8307 80.0158 30.8V30.708C80.0158 30.616 80.0464 30.5393 80.1078 30.478L80.2458 30.34V30.294C80.2458 30.2633 80.2611 30.2327 80.2918 30.202V30.11L80.5218 29.88C80.6444 29.7573 80.7364 29.6807 80.7978 29.65C81.0431 29.3127 81.2424 29.006 81.3958 28.73H81.5798L81.6258 28.776C81.5951 28.7147 81.5644 28.6687 81.5338 28.638C81.5338 28.6073 81.5338 28.5767 81.5338 28.546C81.5338 28.3007 81.7331 27.948 82.1318 27.488C82.5611 27.028 83.0671 26.5373 83.6498 26.016C84.2324 25.464 84.7998 24.958 85.3518 24.498C85.9038 24.0073 86.3331 23.624 86.6398 23.348V23.118H86.7318C86.8544 23.0567 86.9771 22.9647 87.0998 22.842C87.2531 22.7193 87.4064 22.5967 87.5598 22.474C87.8664 22.1673 88.1271 21.9987 88.3418 21.968L88.4338 21.738L88.7098 21.692C88.7404 21.6613 88.7711 21.6307 88.8018 21.6C88.8324 21.5693 88.8631 21.5387 88.8938 21.508C88.9551 21.4773 89.0011 21.462 89.0318 21.462C89.0624 21.462 89.0931 21.4467 89.1238 21.416L89.1698 21.37L89.2618 21.324V21.278C89.2618 21.2473 89.2771 21.2167 89.3078 21.186L90.1358 20.864L90.2278 20.91L90.8718 20.634L91.0098 20.496H91.0558L91.6538 20.45L91.9758 20.266L92.0678 20.174V20.22L92.1138 20.174L92.2058 20.266C92.4818 20.1433 92.7578 20.082 93.0338 20.082C93.3098 20.082 93.6778 20.128 94.1378 20.22C94.5978 20.312 95.0271 20.4653 95.4258 20.68C95.8244 20.864 96.0544 21.1247 96.1158 21.462V21.554L95.1498 22.106C95.2111 21.9527 95.2571 21.8607 95.2878 21.83V21.784C95.2878 21.7227 95.2264 21.692 95.1038 21.692H94.8278C94.1838 21.692 93.5858 21.876 93.0338 22.244C92.5124 22.612 92.0064 22.98 91.5158 23.348C91.2398 23.4093 90.9484 23.5933 90.6418 23.9C90.3351 24.2067 90.0591 24.4367 89.8138 24.59C88.6178 25.51 87.5291 26.43 86.5478 27.35C85.5971 28.2393 84.6924 29.3127 83.8338 30.57C83.6804 30.8153 83.4811 31.1373 83.2358 31.536C82.9904 31.904 82.7758 32.1647 82.5918 32.318C82.4384 32.594 82.2851 32.87 82.1318 33.146C81.9784 33.422 81.8404 33.7133 81.7178 34.02C81.5951 34.3267 81.4571 34.618 81.3038 34.894C81.1504 35.17 80.9971 35.4307 80.8438 35.676C80.8438 36.044 80.7978 36.3967 80.7058 36.734C80.6444 36.918 80.6138 37.0713 80.6138 37.194C80.5831 37.286 80.5678 37.378 80.5678 37.47C80.5678 37.562 80.5524 37.6387 80.5218 37.7L80.7058 38.114C81.0738 37.9607 81.5184 37.7613 82.0398 37.516C82.5611 37.2707 82.8218 36.9947 82.8218 36.688C83.0058 36.6267 83.0978 36.596 83.0978 36.596H83.1898V36.504C83.2511 36.4427 83.2971 36.412 83.3278 36.412H83.4658L83.6038 36.228V35.998L83.7878 36.182L84.3858 35.584C84.3858 35.4307 84.4931 35.3387 84.7078 35.308C85.2291 34.8787 85.6891 34.3727 86.0878 33.79C86.3024 33.4833 86.5171 33.192 86.7318 32.916C86.9464 32.64 87.1764 32.3793 87.4218 32.134H87.5138L88.1118 31.398L88.0658 31.214L88.7098 30.386H88.8018C88.8631 30.202 88.9551 30.018 89.0778 29.834L89.2158 29.926L89.5838 29.42L89.5378 29.374C89.6911 29.1287 89.8598 28.8833 90.0438 28.638C90.2278 28.3927 90.4118 28.1627 90.5958 27.948C90.7798 27.7027 90.9484 27.4573 91.1018 27.212C91.2858 26.9667 91.4544 26.7213 91.6078 26.476C91.6078 26.2613 91.6844 26.062 91.8378 25.878C91.9911 25.694 92.1904 25.602 92.4358 25.602L92.7578 25.694C92.8804 25.4793 92.9418 25.142 92.9418 24.682C93.0951 24.7127 93.2178 24.682 93.3098 24.59C93.3098 24.59 93.4018 24.5593 93.5858 24.498V24.59L93.9538 24.728C94.0764 24.6667 94.1684 24.636 94.2298 24.636C94.4751 24.636 94.7204 24.7127 94.9658 24.866C95.2111 24.9887 95.4258 25.1267 95.6098 25.28C95.6098 25.3413 95.6251 25.3567 95.6558 25.326C95.6558 25.2953 95.6711 25.28 95.7018 25.28H95.9318C96.3304 25.28 96.5298 25.4487 96.5298 25.786V25.924C96.3764 26.1387 96.2231 26.3533 96.0698 26.568C95.9471 26.7827 95.8244 26.9973 95.7018 27.212C95.4564 27.6413 95.1191 28.0247 94.6898 28.362V28.454L93.9538 29.512L94.0458 29.696L92.4818 31.628L92.3438 31.674C92.2824 31.8887 92.2058 32.1033 92.1138 32.318C92.0524 32.502 91.9758 32.7013 91.8838 32.916L91.4698 33.054C91.5311 33.1153 91.5618 33.192 91.5618 33.284C91.5618 33.4067 91.5771 33.4833 91.6078 33.514C91.3624 33.974 91.1478 34.434 90.9638 34.894C90.8104 35.354 90.7644 35.8447 90.8258 36.366C90.7338 36.4273 90.6724 36.5193 90.6418 36.642C90.6418 36.734 90.6418 36.826 90.6418 36.918C90.6418 37.0713 90.6418 37.2247 90.6418 37.378C90.6724 37.5007 90.7031 37.6387 90.7338 37.792C90.7644 37.9453 90.7951 38.0987 90.8258 38.252C90.8564 38.4053 90.8871 38.5587 90.9178 38.712L91.4238 38.436H91.5618L91.6078 38.39L91.6998 38.252C91.6998 38.16 91.7458 38.0527 91.8378 37.93L91.9298 38.298L92.3438 38.114V38.298H92.3898C92.5124 38.298 92.6044 38.206 92.6658 38.022C92.7271 37.9607 92.8038 37.8993 92.8958 37.838C92.9878 37.746 93.0951 37.7 93.2178 37.7L93.2638 37.608V37.47C93.2638 37.3167 93.3711 37.194 93.5858 37.102C93.7084 37.0713 93.8004 37.0407 93.8618 37.01C93.9538 36.9487 94.0304 36.918 94.0918 36.918H94.1378L95.3338 35.722H95.3798C95.4411 35.63 95.5638 35.5073 95.7478 35.354C95.9624 35.17 96.1464 35.0473 96.2998 34.986V34.664L96.6218 34.572H96.6678L97.7258 33.1C97.7258 33.1307 97.7564 33.146 97.8178 33.146C97.8791 33.146 97.9251 33.1613 97.9558 33.192C97.9864 33.192 98.0324 33.146 98.0938 33.054C98.1858 32.9313 98.2318 32.8393 98.2318 32.778C98.2624 32.7473 98.2931 32.7167 98.3238 32.686C98.3851 32.6247 98.4771 32.5787 98.5998 32.548C98.6918 32.4867 98.7684 32.456 98.8298 32.456C98.8911 32.4253 98.9371 32.3947 98.9678 32.364C98.6304 33.008 98.3238 33.5907 98.0478 34.112C97.8024 34.6333 97.5571 35.1547 97.3118 35.676C97.0664 36.1973 96.7904 36.7033 96.4838 37.194C96.1771 37.654 95.7938 38.114 95.3338 38.574L95.1498 38.39L95.4718 37.976L95.4258 37.7L95.3338 37.746V37.93L95.0118 38.252C94.9811 38.6507 94.8431 38.942 94.5978 39.126H94.4138L94.3218 39.08V39.31L94.0458 39.632L93.9078 39.586L93.3558 40.368V40.23L93.2638 40.276C93.2024 40.3067 93.1411 40.3373 93.0798 40.368C93.0184 40.3987 92.9571 40.4293 92.8958 40.46C92.7118 40.5213 92.6044 40.6133 92.5738 40.736L91.2398 40.92ZM95.8398 37.286C95.8398 37.194 95.8551 37.1327 95.8858 37.102L95.9778 36.964L95.7938 37.01H95.8398L95.7018 37.24L95.7478 37.194L95.8398 37.286ZM108.082 18.564C107.622 18.564 107.254 18.3647 106.978 17.966C106.733 17.5367 106.61 17.1227 106.61 16.724C107.53 16.0493 108.45 15.39 109.37 14.746C110.321 14.0713 111.287 13.55 112.268 13.182L112.82 12.768L112.866 12.952C112.866 13.136 112.667 13.3967 112.268 13.734C111.869 14.0407 111.578 14.2247 111.394 14.286C111.363 14.3473 111.21 14.608 110.934 15.068C110.658 15.4973 110.321 15.988 109.922 16.54C109.554 17.0613 109.186 17.5367 108.818 17.966C108.481 18.3647 108.235 18.564 108.082 18.564ZM99.0659 39.724C98.6366 39.724 98.2992 39.5707 98.0539 39.264C97.8086 38.9267 97.6399 38.528 97.5479 38.068C97.4559 37.608 97.4099 37.2093 97.4099 36.872C97.4099 35.676 97.6092 34.48 98.0079 33.284C98.4372 32.0573 98.9432 30.938 99.5259 29.926C99.6792 29.65 99.8479 29.4047 100.032 29.19L100.492 28.5C100.584 28.3467 100.676 28.1627 100.768 27.948C100.829 27.7333 100.921 27.5647 101.044 27.442C101.197 27.1353 101.366 26.8133 101.55 26.476C101.765 26.1387 101.979 25.8013 102.194 25.464C102.623 24.7587 102.838 24.038 102.838 23.302C102.869 23.3327 102.915 23.348 102.976 23.348H103.022C103.145 23.348 103.237 23.3327 103.298 23.302H103.482C103.789 23.302 104.141 23.44 104.54 23.716C104.969 23.992 105.353 24.3293 105.69 24.728C106.027 25.096 106.196 25.4333 106.196 25.74C106.196 25.9547 106.073 26.2 105.828 26.476C105.613 26.752 105.368 27.028 105.092 27.304L104.678 27.718L104.264 28.178C104.049 28.4233 103.835 28.6993 103.62 29.006C103.405 29.282 103.206 29.5887 103.022 29.926C102.961 29.9873 102.93 30.064 102.93 30.156C102.93 30.2787 102.915 30.3553 102.884 30.386C102.884 30.57 102.731 30.7233 102.424 30.846V30.616C101.657 31.3827 101.013 32.3487 100.492 33.514C100.001 34.6793 99.7559 35.7833 99.7559 36.826V37.24C99.7559 37.4547 99.7866 37.5927 99.8479 37.654C99.8786 37.7767 99.9399 37.838 100.032 37.838H100.124C100.124 37.8687 100.139 37.884 100.17 37.884C100.17 37.9147 100.185 37.93 100.216 37.93V37.976C100.216 38.0373 100.17 38.114 100.078 38.206L100.032 38.252C99.9706 38.3133 99.9399 38.344 99.9399 38.344C99.9399 38.3747 100.047 38.4207 100.262 38.482C100.477 38.5127 100.599 38.528 100.63 38.528C100.753 38.528 100.952 38.4207 101.228 38.206C101.504 37.9607 101.795 37.7 102.102 37.424C102.409 37.148 102.654 36.9487 102.838 36.826C103.053 36.642 103.252 36.5193 103.436 36.458C103.681 36.1513 103.927 35.8447 104.172 35.538C104.417 35.2313 104.647 34.9247 104.862 34.618C105.107 34.3113 105.337 34.02 105.552 33.744C105.797 33.468 106.043 33.1767 106.288 32.87V32.778C106.288 32.7167 106.365 32.5633 106.518 32.318C106.702 32.042 106.886 31.7813 107.07 31.536C107.285 31.2907 107.423 31.168 107.484 31.168C107.515 31.1987 107.53 31.2753 107.53 31.398C107.53 31.5207 107.515 31.5973 107.484 31.628C107.3 32.0267 107.024 32.594 106.656 33.33C106.288 34.0353 105.905 34.6947 105.506 35.308C105.138 35.9213 104.785 36.274 104.448 36.366C104.387 36.5193 104.295 36.7033 104.172 36.918C104.049 37.1327 103.896 37.2707 103.712 37.332C103.62 37.4853 103.497 37.562 103.344 37.562C103.252 37.8073 103.145 37.9453 103.022 37.976C102.961 38.0373 102.899 38.0987 102.838 38.16C102.777 38.1907 102.731 38.2213 102.7 38.252C102.669 38.3747 102.562 38.4973 102.378 38.62C102.194 38.712 102.041 38.7887 101.918 38.85C101.765 39.0033 101.565 39.172 101.32 39.356C101.075 39.54 100.829 39.632 100.584 39.632H100.446L100.308 39.586H100.216C100.185 39.5553 100.139 39.54 100.078 39.54C99.9859 39.54 99.8172 39.5707 99.5719 39.632C99.3266 39.6933 99.1579 39.724 99.0659 39.724Z" fill="white"/>
</svg>
